<?xml version="1.0" standalone="no"?>
<!DOCTYPE svg PUBLIC "-//W3C//DTD SVG 20010904//EN"
 "http://www.w3.org/TR/2001/REC-SVG-20010904/DTD/svg10.dtd">
<svg version="1.0" xmlns="http://www.w3.org/2000/svg"
 width="484.000000pt" height="710.000000pt" viewBox="0 0 484.000000 710.000000"
 preserveAspectRatio="xMidYMid meet">

<g transform="translate(0.000000,710.000000) scale(0.100000,-0.100000)"
fill="#A42222" stroke="none">
<path d="M2307 7086 c-152 -43 -259 -198 -261 -381 -1 -57 4 -80 27 -127 39
-80 110 -155 176 -186 l56 -27 -2 -45 c-1 -25 -5 -84 -8 -131 l-7 -86 -94 -7
c-159 -11 -420 -86 -638 -182 -187 -83 -398 -223 -422 -280 -8 -19 -30 -42
-56 -57 -81 -47 -257 -248 -352 -401 -26 -41 -73 -131 -103 -198 -31 -67 -62
-133 -71 -146 -18 -28 -74 -58 -127 -67 -57 -10 -201 -79 -252 -121 -104 -85
-158 -255 -169 -533 -14 -315 50 -550 181 -669 69 -64 192 -125 307 -154 71
-18 88 -26 88 -41 0 -33 132 -246 234 -377 75 -97 226 -249 359 -362 64 -55
117 -101 117 -103 0 -2 -19 -14 -42 -28 -110 -64 -310 -286 -364 -402 -52
-113 -67 -185 -68 -320 0 -127 19 -222 65 -320 52 -111 233 -260 407 -335 149
-64 495 -160 578 -160 41 0 42 -5 13 -110 -22 -81 -36 -222 -25 -264 4 -15 29
-42 64 -68 31 -23 117 -91 190 -152 73 -61 174 -139 224 -173 l91 -62 61 53
c33 29 120 99 191 155 145 115 249 212 271 253 19 37 18 95 -6 245 -11 69 -17
129 -13 133 4 4 67 19 138 34 346 73 542 153 706 289 149 124 222 314 205 535
-9 118 -21 163 -77 279 -40 84 -63 117 -133 190 -46 48 -122 119 -169 157
l-86 69 102 82 c160 130 391 373 484 510 44 66 114 200 132 255 l11 35 88 2
c76 2 95 7 152 35 256 130 396 507 336 908 -45 297 -148 431 -391 510 -138 45
-164 65 -195 154 -33 97 -118 246 -141 246 -11 0 -19 7 -19 17 0 16 -56 121
-83 156 -8 9 -23 17 -33 18 -13 0 -28 19 -48 60 -24 52 -48 78 -160 176 -72
63 -178 146 -235 185 -122 81 -343 195 -486 248 -114 43 -303 86 -417 95 l-78
7 0 36 c0 21 -3 81 -7 135 -6 92 -5 97 14 97 11 0 53 34 100 83 98 100 113
139 113 290 0 94 -2 103 -30 147 -39 62 -150 167 -194 185 -51 22 -162 27
-219 11z m191 -206 c43 -26 62 -74 62 -153 0 -68 -18 -104 -74 -148 -23 -18
-37 -21 -96 -17 -78 4 -102 19 -131 83 -22 48 -24 133 -4 181 28 68 169 99
243 54z m-98 -1018 l0 -69 -82 -12 c-352 -52 -657 -167 -873 -328 -149 -111
-329 -299 -424 -442 -132 -199 -198 -343 -246 -545 -62 -254 -55 -598 16 -855
61 -217 226 -510 377 -666 185 -192 332 -303 516 -390 198 -95 354 -137 579
-157 l137 -12 0 -60 0 -59 -172 6 c-189 6 -259 18 -424 73 -146 48 -276 116
-416 216 -310 221 -505 440 -634 714 -140 297 -204 603 -191 913 14 333 159
706 398 1023 98 130 298 323 419 404 297 198 625 308 933 313 l87 1 0 -68z
m410 15 c272 -64 537 -203 790 -415 147 -123 334 -357 346 -433 5 -28 11 -39
24 -39 20 0 68 -85 129 -233 70 -169 103 -299 137 -534 3 -18 9 -33 14 -33 16
0 12 -201 -6 -317 -38 -260 -121 -490 -252 -701 -84 -135 -229 -321 -327 -417
-103 -103 -328 -263 -469 -334 -187 -96 -430 -158 -648 -168 l-128 -6 0 69 0
70 128 12 c277 27 490 97 691 226 36 24 93 58 125 77 72 42 273 233 367 348
77 96 218 367 263 505 88 266 100 639 31 924 -75 308 -211 539 -467 794 -81
81 -148 153 -149 160 0 20 -400 213 -521 253 -83 27 -426 105 -461 105 -4 0
-7 28 -7 61 l0 62 143 -6 c97 -4 175 -14 247 -30z m-240 -271 c313 -42 612
-171 825 -356 85 -74 233 -247 312 -365 92 -137 172 -334 209 -515 14 -64 18
-134 19 -280 0 -217 -11 -297 -57 -430 -17 -47 -45 -128 -63 -180 -46 -135
-68 -182 -129 -274 -103 -158 -248 -303 -406 -406 -96 -62 -291 -154 -402
-189 -162 -51 -250 -63 -513 -68 l-240 -5 -115 37 c-204 66 -415 176 -568 298
-240 190 -461 490 -492 667 -7 36 -25 121 -40 190 -101 436 -42 787 195 1160
203 320 430 511 755 635 93 36 222 70 315 84 94 13 280 12 395 -3z m-2134
-1070 c3 -20 -1 -65 -11 -108 -17 -73 -40 -493 -28 -512 4 -5 18 -91 33 -191
l26 -182 -43 8 c-76 15 -104 38 -147 119 -36 68 -54 141 -67 275 -14 146 -7
302 21 413 29 121 39 135 121 176 40 20 75 36 80 36 4 0 11 -15 15 -34z m4043
-24 c105 -72 156 -219 149 -429 -2 -77 -8 -127 -16 -135 -7 -7 -12 -36 -12
-66 0 -115 -74 -285 -144 -329 -49 -31 -106 -56 -113 -49 -3 3 4 43 15 88 34
139 45 243 45 473 1 159 -4 253 -16 338 -9 65 -17 125 -17 133 0 26 53 15 109
-24z m-1299 -2302 c0 -12 -158 -195 -224 -260 l-66 -65 -37 20 c-34 19 -93 97
-136 181 l-16 31 127 28 c123 27 269 71 308 93 15 9 22 8 32 -5 6 -9 12 -20
12 -23z m-1288 -42 c109 -24 198 -46 198 -51 0 -4 -25 -57 -56 -118 -63 -127
-61 -126 -163 -66 -119 71 -284 306 -198 283 12 -3 111 -25 219 -48z m584 -94
c40 -19 134 -124 134 -149 0 -35 -24 -95 -50 -127 l-27 -33 -109 -3 c-123 -3
-140 2 -187 60 -56 70 -47 147 25 214 57 54 147 70 214 38z m-196 -579 l0 -85
-35 0 c-19 0 -35 3 -35 7 0 4 8 43 17 85 13 63 20 78 35 78 16 0 18 -9 18 -85z
m293 7 c9 -42 17 -81 17 -85 0 -4 -27 -7 -60 -7 l-60 0 0 85 0 85 43 0 44 0
16 -78z m-113 -197 l0 -85 -90 0 -90 0 0 85 0 85 90 0 90 0 0 -85z m215 -292
c14 -91 25 -170 25 -175 0 -4 -11 -8 -25 -8 -25 0 -25 -1 -25 -79 l0 -80 47
-3 48 -3 8 -50 8 -50 -43 -37 c-67 -58 -72 -54 -84 65 l-6 67 -85 0 -84 0 3
88 3 87 60 3 c110 4 105 0 105 102 l0 90 -80 0 -80 0 0 85 0 84 83 3 c57 2 84
-1 90 -9 4 -7 19 -88 32 -180z m-415 102 l0 -85 -66 0 -65 0 6 58 c13 117 10
112 71 112 l54 0 0 -85z m200 -170 l0 -85 -90 0 -90 0 0 85 0 85 90 0 90 0 0
-85z m-180 -190 l0 -85 78 0 c47 0 83 -5 90 -12 7 -7 12 -43 12 -90 l0 -78
-90 0 -90 0 0 -55 c0 -30 -3 -55 -6 -55 -22 0 -134 84 -134 101 0 5 32 9 70 9
l70 0 0 85 0 85 -85 0 -85 0 0 -75 c0 -41 -2 -75 -5 -75 -2 0 -20 8 -40 17
-35 17 -35 17 -35 80 0 63 0 63 29 63 29 0 29 0 36 78 4 42 9 80 12 85 2 4 42
7 89 7 l84 0 0 -85z m350 -305 c0 -12 -18 -31 -47 -51 -27 -17 -56 -42 -66
-55 -10 -13 -27 -24 -38 -24 -17 0 -19 8 -19 75 l0 75 85 0 c78 0 85 -2 85
-20z"/>
<path d="M1540 5047 c-76 -17 -152 -61 -205 -118 -57 -61 -64 -89 -37 -145 27
-54 52 -57 138 -16 57 26 66 27 247 30 213 4 198 -3 212 94 l7 45 -58 48 c-32
26 -69 51 -83 56 -41 16 -163 19 -221 6z"/>
<path d="M3064 5050 c-52 -12 -105 -50 -135 -99 -33 -52 -36 -72 -12 -111 l17
-29 150 6 c162 6 144 9 306 -53 65 -25 115 -14 129 28 21 60 14 88 -32 132
-102 98 -297 157 -423 126z"/>
<path d="M1464 4585 c-88 -19 -119 -38 -205 -124 -173 -173 -215 -400 -114
-607 66 -135 221 -251 368 -277 262 -44 528 165 569 449 21 149 -24 300 -124
409 -60 66 -177 128 -283 150 -84 18 -130 18 -211 0z m227 -179 c102 -77 125
-163 71 -261 -40 -73 -79 -95 -166 -95 -95 0 -140 25 -178 99 -48 92 -36 166
38 231 49 43 89 59 145 60 37 0 55 -6 90 -34z"/>
<path d="M3115 4576 c-27 -7 -83 -30 -124 -51 -254 -134 -339 -425 -202 -689
48 -94 119 -164 211 -209 201 -99 392 -67 551 92 114 114 158 242 145 423 -10
142 -57 243 -137 294 -21 13 -39 31 -39 40 0 21 -149 89 -224 103 -74 14 -117
13 -181 -3z m185 -154 c19 -9 37 -27 40 -40 3 -12 20 -30 40 -40 l35 -17 0
-85 c0 -72 -3 -90 -22 -116 -32 -45 -86 -67 -170 -72 l-72 -4 -65 64 -66 64 0
68 c0 79 15 106 87 161 40 30 53 35 102 35 33 0 70 -7 91 -18z"/>
<path d="M2034 3508 c-33 -29 -35 -35 -30 -72 16 -101 95 -209 188 -258 37
-20 61 -23 182 -26 148 -4 179 1 271 45 40 18 61 37 86 76 64 97 71 116 65
171 -9 66 -14 73 -62 84 -41 9 -42 9 -83 -40 -24 -26 -66 -61 -94 -76 -45 -23
-64 -27 -137 -27 -94 0 -121 11 -209 85 -42 36 -106 70 -130 70 -6 0 -27 -14
-47 -32z"/>
</g>
</svg>
