<?xml version="1.0" standalone="no"?>
<!DOCTYPE svg PUBLIC "-//W3C//DTD SVG 20010904//EN"
 "http://www.w3.org/TR/2001/REC-SVG-20010904/DTD/svg10.dtd">
<svg version="1.0" xmlns="http://www.w3.org/2000/svg"
 width="720.000000pt" height="720.000000pt" viewBox="0 0 720.000000 720.000000"
 preserveAspectRatio="xMidYMid meet">

<g transform="translate(0.000000,720.000000) scale(0.100000,-0.100000)"
fill="#288b8f" stroke="#196c6f">
<path d="M3625 6871 c-62 -17 -103 -40 -144 -82 -122 -127 -101 -334 45 -438
l45 -33 -3 -111 -3 -112 -95 -12 c-245 -30 -363 -56 -565 -121 -331 -108 -704
-344 -906 -573 -204 -232 -324 -416 -433 -664 -58 -131 -61 -135 -96 -135 -67
0 -208 -68 -256 -122 -101 -118 -154 -241 -189 -438 -19 -106 -19 -208 0 -328
48 -317 207 -513 452 -554 l73 -12 52 -95 c28 -53 76 -132 107 -176 l56 -80 5
-291 5 -290 34 -65 c50 -95 115 -183 211 -283 74 -77 120 -115 267 -223 47
-34 285 -154 380 -191 104 -40 152 -42 193 -4 22 19 33 39 37 69 5 40 3 46
-34 82 -22 22 -56 44 -78 50 -69 19 -302 138 -398 203 -114 78 -267 229 -332
328 l-50 75 -2 295 c-1 162 -2 302 -2 312 -1 9 -20 40 -43 69 -144 176 -221
329 -283 559 -179 664 88 1432 666 1915 261 218 594 371 949 435 628 113 1224
-36 1720 -430 391 -311 668 -821 711 -1310 41 -462 -71 -867 -326 -1174 l-40
-48 4 -297 c4 -341 8 -321 -96 -458 -133 -174 -329 -320 -577 -429 -44 -19
-102 -45 -128 -56 -69 -31 -93 -60 -93 -115 0 -38 5 -49 34 -75 32 -28 38 -30
93 -25 32 3 64 9 71 14 7 5 34 18 61 28 129 47 351 172 459 258 167 133 336
338 379 462 15 43 17 90 18 323 l0 273 69 102 c38 56 87 138 109 183 l41 81
76 12 c212 35 362 193 436 461 20 73 23 109 23 250 0 169 -8 231 -46 345 -38
112 -88 197 -154 262 -70 70 -123 99 -221 117 l-66 12 -57 129 c-177 403 -462
750 -795 970 -337 223 -660 338 -1090 388 l-100 12 -3 116 -3 116 41 27 c22
14 57 52 77 83 35 52 38 62 41 143 3 77 1 93 -21 137 -29 57 -90 116 -143 138
-45 19 -129 27 -169 16z m89 -247 c19 -18 20 -28 6 -55 -20 -37 -80 -18 -80
26 0 42 44 59 74 29z m2263 -2326 c89 -93 125 -216 125 -433 0 -169 -14 -243
-64 -338 -51 -95 -149 -168 -134 -99 44 208 50 259 49 477 -1 174 -5 241 -20
323 -25 131 -21 137 44 70z m-4537 19 c0 -6 -4 -28 -10 -47 -21 -73 -42 -344
-36 -450 8 -119 31 -293 47 -352 14 -52 2 -65 -40 -43 -74 38 -136 182 -153
354 -10 102 -9 133 5 219 21 131 65 244 114 294 36 37 73 50 73 25z"/>
<path d="M2689 4257 c-72 -30 -110 -58 -152 -110 -44 -54 -61 -89 -77 -156
-39 -167 50 -350 208 -428 51 -25 68 -28 157 -28 87 0 107 3 157 27 242 113
297 428 108 617 -73 73 -125 94 -245 98 -87 3 -107 1 -156 -20z m317 -141 c30
-30 34 -40 34 -86 0 -45 -4 -56 -30 -80 -78 -73 -200 -20 -200 87 0 38 5 50
34 79 29 29 41 34 81 34 40 0 52 -5 81 -34z"/>
<path d="M4440 4263 c-94 -33 -174 -107 -219 -203 -23 -48 -26 -68 -26 -155 0
-87 3 -107 26 -155 39 -82 99 -144 177 -182 62 -31 74 -33 167 -33 89 0 106 3
157 28 79 39 143 104 181 185 29 61 32 76 32 162 0 82 -4 103 -27 153 -38 81
-127 168 -201 195 -71 27 -199 29 -267 5z m289 -139 c17 -14 36 -43 42 -64 16
-53 -11 -107 -65 -134 -36 -17 -43 -18 -80 -5 -95 33 -114 157 -34 213 36 25
101 20 137 -10z"/>
<path d="M3801 3569 c-13 -5 -39 -23 -58 -39 -44 -39 -66 -38 -116 5 -66 57
-145 46 -182 -25 -46 -89 31 -190 172 -225 92 -24 178 -5 267 58 38 27 68 95
60 136 -7 34 -56 91 -79 91 -7 0 -19 2 -27 4 -7 3 -24 0 -37 -5z"/>
<path d="M2274 3090 c-44 -14 -66 -42 -72 -95 -7 -70 9 -90 118 -145 221 -111
493 -187 877 -245 l41 -6 61 -148 c34 -80 61 -156 61 -168 0 -20 -103 -298
-194 -521 -32 -78 -46 -128 -46 -160 l0 -46 256 -257 c273 -273 284 -282 349
-254 13 5 135 123 270 262 198 203 247 259 251 285 6 37 -9 80 -142 417 -48
119 -91 231 -96 249 -8 29 -2 52 53 187 l63 154 40 6 c357 54 564 108 806 209
170 72 217 121 190 202 -29 88 -108 97 -255 29 -229 -107 -496 -177 -810 -215
-570 -69 -1247 22 -1646 221 -85 42 -130 52 -175 39z m1596 -532 c0 -7 -23
-73 -50 -147 -28 -74 -50 -144 -50 -156 0 -20 70 -201 204 -523 14 -35 26 -73
26 -84 0 -23 -294 -338 -315 -338 -15 0 -325 317 -325 332 0 5 43 119 96 251
53 133 107 270 121 304 l24 63 -50 147 c-28 82 -51 151 -51 156 0 4 83 7 185
7 141 0 185 -3 185 -12z"/>
<path d="M1518 1403 c-24 -29 -178 -275 -178 -285 0 -21 22 -48 40 -48 10 0
35 21 56 48 21 26 41 51 45 55 4 5 5 -27 2 -72 -6 -88 9 -131 46 -131 29 0
105 107 178 251 34 68 35 70 17 90 -10 11 -27 19 -38 17 -18 -3 -29 -15 -73
-84 -10 -16 -12 -5 -12 62 -1 65 -5 84 -19 97 -24 22 -45 21 -64 0z"/>
<path d="M5709 1365 c-14 -7 -33 -32 -43 -53 -15 -34 -16 -46 -6 -76 12 -39
49 -73 88 -83 13 -3 48 0 78 7 43 11 56 11 69 0 21 -18 19 -46 -7 -64 -18 -13
-24 -13 -42 -1 -26 19 -41 19 -60 -1 -39 -39 1 -84 74 -84 91 0 140 45 140
129 0 31 -7 49 -31 75 -38 44 -84 55 -142 32 -55 -21 -64 -20 -77 5 -18 33 5
52 52 44 43 -8 68 6 68 36 0 44 -103 66 -161 34z"/>
<path d="M1753 1248 c-33 -37 -153 -265 -153 -291 0 -31 17 -44 94 -79 60 -26
61 -27 80 -8 25 24 16 43 -34 75 -45 29 -44 26 -28 59 10 22 17 25 56 23 62
-3 77 21 39 61 -25 26 -27 32 -16 56 14 29 23 31 59 11 35 -20 68 -18 80 4 16
32 2 49 -67 81 -77 36 -84 36 -110 8z"/>
<path d="M5547 1263 c-18 -17 -2 -66 48 -156 58 -102 66 -136 39 -158 -14 -11
-19 -10 -36 11 -11 14 -44 73 -74 132 -54 108 -79 133 -109 108 -26 -22 -16
-60 41 -169 67 -125 82 -146 112 -160 79 -37 190 35 178 116 -3 18 -35 89 -72
158 -60 112 -70 125 -94 125 -15 0 -30 -3 -33 -7z m123 -338 c0 -8 -4 -15 -9
-15 -13 0 -22 16 -14 24 11 11 23 6 23 -9z"/>
<path d="M1957 1152 c-9 -10 -42 -71 -73 -136 -48 -102 -55 -125 -51 -160 10
-74 102 -125 166 -91 43 22 73 66 126 183 48 106 52 137 23 156 -30 19 -50 -4
-111 -130 -68 -139 -84 -155 -111 -112 -8 13 3 45 47 136 31 65 57 125 57 133
0 38 -46 51 -73 21z"/>
<path d="M5306 1138 c-8 -13 -17 -42 -21 -65 -7 -47 -22 -54 -49 -24 -28 31
-73 46 -91 31 -33 -27 -18 -57 56 -112 57 -42 69 -56 64 -73 -3 -11 -9 -57
-12 -101 -5 -76 -4 -82 14 -88 11 -4 27 -4 36 0 18 7 37 55 37 95 0 36 10 36
65 3 48 -27 82 -29 98 -3 16 26 2 46 -67 91 -36 24 -68 50 -71 59 -3 9 -1 36
4 60 14 60 14 122 -1 137 -19 19 -46 14 -62 -10z"/>
<path d="M2206 1045 c-29 -31 -129 -285 -124 -317 2 -18 9 -23 33 -23 26 0 34
7 58 53 39 72 53 68 62 -20 8 -87 18 -108 50 -108 35 0 47 29 39 103 l-6 62
41 42 c37 37 41 45 41 92 0 61 -17 82 -96 117 -67 30 -70 30 -98 -1z m102
-123 c-2 -21 -9 -28 -31 -30 -35 -4 -45 19 -23 53 14 21 20 24 37 14 14 -7 19
-18 17 -37z"/>
<path d="M4987 1026 c-98 -38 -98 -37 -53 -174 22 -64 50 -141 62 -169 21 -49
25 -53 56 -53 42 1 138 40 152 63 8 12 8 22 0 35 -12 17 -40 19 -100 7 -28 -6
-32 -4 -44 26 -11 26 -11 34 -1 37 7 2 24 14 39 27 23 20 24 25 13 39 -8 10
-29 16 -52 16 -33 0 -41 4 -49 26 -12 32 -8 40 27 49 72 18 88 98 20 94 -7 0
-38 -10 -70 -23z"/>
<path d="M4795 960 c-16 -18 -16 -22 -1 -66 27 -79 20 -82 -42 -21 -62 61 -79
68 -105 39 -23 -25 -22 -26 22 -188 48 -173 54 -186 88 -182 42 5 50 29 29 93
-10 31 -15 59 -12 63 4 3 35 -23 70 -57 54 -54 68 -63 89 -57 14 3 28 15 32
26 10 31 -92 337 -118 355 -27 19 -30 19 -52 -5z"/>
<path d="M2513 920 c-63 -89 -163 -264 -163 -283 0 -9 10 -23 23 -32 21 -15
23 -14 55 20 31 34 35 35 67 25 29 -10 34 -16 40 -55 5 -37 11 -46 31 -51 14
-4 31 -1 40 7 14 11 16 38 13 195 -4 194 -9 214 -55 214 -17 0 -32 -12 -51
-40z m27 -163 c0 -30 -10 -40 -26 -26 -10 8 -11 16 -3 30 14 26 29 24 29 -4z"/>
<path d="M2742 901 c-16 -10 -93 -305 -90 -341 4 -30 30 -44 116 -61 45 -10
68 -10 80 -3 42 27 15 70 -50 80 -22 4 -42 12 -44 18 -2 6 7 63 21 125 30 138
31 167 6 181 -23 12 -22 12 -39 1z"/>
<path d="M4313 846 c-84 -18 -82 6 -34 -315 6 -35 16 -68 23 -73 34 -24 171
13 202 55 19 26 19 31 7 130 -16 130 -38 183 -85 202 -40 17 -42 17 -113 1z
m75 -89 c14 -16 42 -131 42 -170 0 -32 -45 -61 -59 -39 -12 19 -34 199 -27
211 10 15 31 14 44 -2z"/>
<path d="M3090 820 c-6 -11 -15 -94 -21 -185 -12 -179 -9 -195 37 -195 31 0
37 12 44 90 l6 65 36 -70 c46 -91 69 -112 103 -97 22 10 25 18 25 63 0 28 5
105 11 171 12 137 6 168 -35 168 -33 0 -46 -26 -46 -89 0 -28 -4 -51 -8 -51
-5 0 -19 24 -32 53 -13 28 -33 62 -44 75 -24 27 -62 29 -76 2z"/>
<path d="M4058 813 c-15 -18 -20 -35 -38 -138 -5 -27 -16 -88 -24 -134 -17
-93 -11 -121 28 -121 27 0 41 14 50 51 5 24 28 38 63 39 6 0 20 -16 32 -35 27
-46 47 -53 74 -27 l20 21 -61 162 c-34 89 -70 171 -79 181 -20 23 -46 23 -65
1z m64 -225 c-16 -16 -37 4 -28 28 6 16 8 16 23 1 13 -13 15 -19 5 -29z"/>
<path d="M3407 786 c-14 -13 -30 -41 -36 -62 -16 -58 -14 -219 4 -253 18 -36
70 -61 125 -61 34 0 48 6 76 34 l34 34 0 137 0 137 -29 29 c-26 26 -37 29 -89
29 -48 0 -64 -4 -85 -24z m108 -170 c0 -91 -3 -111 -17 -119 -12 -8 -21 -7
-32 2 -12 11 -16 33 -16 103 0 100 10 131 43 126 21 -3 22 -8 22 -112z"/>
<path d="M3651 791 c-12 -22 -14 -300 -2 -340 9 -33 36 -49 59 -35 13 8 18 27
20 80 2 38 7 73 12 78 4 4 17 -12 28 -38 12 -25 27 -46 35 -46 8 0 23 20 34
45 10 25 21 45 26 45 4 0 7 -33 7 -73 0 -78 9 -97 47 -97 41 0 46 30 39 208
-4 90 -10 170 -13 178 -3 8 -19 14 -39 14 -33 0 -36 -3 -65 -70 -18 -38 -35
-70 -40 -70 -5 0 -23 30 -41 68 -30 60 -37 67 -65 70 -23 2 -34 -2 -42 -17z"/>
</g>
</svg>
