<?xml version="1.0" encoding="UTF-8"?>
<svg version="1.1" xmlns="http://www.w3.org/2000/svg" width="502" height="497">
<path d="M0 0 C4.3978016 3.05934024 8.45682941 7.16365882 10.875 12 C11.36130393 17.77186963 11.7556185 23.13715318 9.25 28.4375 C8.074375 29.7059375 8.074375 29.7059375 6.875 31 C6.11703125 31.83337891 6.11703125 31.83337891 5.34375 32.68359375 C3.92349643 34.19087267 2.40439792 35.6035932 0.875 37 C0.215 37 -0.445 37 -1.125 37 C-0.795 41.62 -0.465 46.24 -0.125 51 C2.35 51.0928125 2.35 51.0928125 4.875 51.1875 C15.95283633 52.10519058 26.9966629 55.98432109 36.875 61 C37.90238281 61.51433594 38.92976562 62.02867188 39.98828125 62.55859375 C46.87168984 66.12335783 53.01789408 69.9264534 58.875 75 C59.37483398 75.42893555 59.87466797 75.85787109 60.38964844 76.29980469 C62.0431178 77.72793573 63.68013097 79.1728165 65.3125 80.625 C65.83336182 81.08036133 66.35422363 81.53572266 66.89086914 82.00488281 C69.91946889 84.76024422 71.68939018 87.06689917 72.875 91 C73.535 91 74.195 91 74.875 91 C76.1640625 92.6796875 76.1640625 92.6796875 77.5 94.875 C77.94601562 95.59429687 78.39203125 96.31359375 78.8515625 97.0546875 C79.875 99 79.875 99 79.875 101 C80.535 101 81.195 101 81.875 101 C82.816637 102.68519502 83.7530901 104.37328697 84.6875 106.0625 C85.53248047 107.56876953 85.53248047 107.56876953 86.39453125 109.10546875 C87.60723284 111.47647634 88.26086485 113.33394537 88.875 115.875 C91.88806748 120.58291794 96.16396427 121.05691386 101.34765625 122.69921875 C107.71886677 125.04873492 111.99531493 128.94345439 115.25 134.875 C120.87098381 148.21301356 121.12342998 165.7577616 116.13671875 179.265625 C112.19352409 187.81124809 107.55891128 193.51328881 98.875 197.3125 C95.46154552 198.09474999 92.36559535 198.13962381 88.875 198 C88.62492188 198.85464844 88.37484375 199.70929688 88.1171875 200.58984375 C83.75630794 212.56169235 74.65798376 222.08208213 65.875 231 C65.04097656 231.85851562 64.20695313 232.71703125 63.34765625 233.6015625 C60.86066986 236.01390001 58.28469644 238.1710388 55.5625 240.3125 C54.67949219 241.00988281 53.79648437 241.70726562 52.88671875 242.42578125 C51.89091797 243.20501953 51.89091797 243.20501953 50.875 244 C51.51566406 244.49628906 52.15632812 244.99257813 52.81640625 245.50390625 C64.21910771 254.4595302 72.30708561 262.24379628 74.875 277 C75.79564078 288.15965915 75.11823049 296.50065084 67.8125 305.1875 C55.25554432 318.12436358 36.9897537 321.43963153 19.875 325 C20.19597656 326.93552734 20.19597656 326.93552734 20.5234375 328.91015625 C20.76741058 330.62735142 21.0094988 332.34481513 21.25 334.0625 C21.39566406 334.91005859 21.54132813 335.75761719 21.69140625 336.63085938 C22.5088545 342.85789163 22.5088545 342.85789163 20.73779297 346.04907227 C19.21886934 347.86399995 17.65101383 349.43787795 15.875 351 C15.09898437 351.68707031 14.32296875 352.37414062 13.5234375 353.08203125 C12.77320313 353.65308594 12.02296875 354.22414063 11.25 354.8125 C7.18290163 357.96822115 3.19574616 361.19507116 -0.75 364.5 C-1.28318848 364.94577393 -1.81637695 365.39154785 -2.36572266 365.85083008 C-3.61955309 366.8996718 -4.87238974 367.94970136 -6.125 369 C-12.373692 365.17328164 -17.90842835 360.7532777 -23.43920898 355.97949219 C-26.33313265 353.48930198 -29.23412331 351.1089703 -32.375 348.9375 C-35.125 347 -35.125 347 -36.125 345 C-36.70278325 338.35549267 -34.88282965 332.37213248 -33.125 326 C-34.18074219 325.90976562 -35.23648438 325.81953125 -36.32421875 325.7265625 C-42.3773028 324.96243885 -48.1152631 323.14538758 -53.9375 321.375 C-55.04931641 321.05660156 -56.16113281 320.73820312 -57.30664062 320.41015625 C-68.91654858 316.89117888 -79.16786694 311.22202843 -86.125 301 C-87.50212444 298.05381741 -88.40231766 295.16485024 -89.125 292 C-89.351875 291.175 -89.57875 290.35 -89.8125 289.5 C-91.03567725 279.71458197 -89.66660972 270.46749525 -84.20703125 262.0390625 C-79.08903569 255.57136545 -72.61338365 247.74419183 -65.125 244 C-66.115 243.154375 -67.105 242.30875 -68.125 241.4375 C-68.76695312 240.88449219 -69.40890625 240.33148438 -70.0703125 239.76171875 C-71.39038813 238.62986683 -72.71795948 237.50666731 -74.0546875 236.39453125 C-85.7318842 226.52284488 -95.07878368 214.550416 -102.125 201 C-102.125 200.34 -102.125 199.68 -102.125 199 C-102.9603125 198.85304687 -102.9603125 198.85304687 -103.8125 198.703125 C-112.15990334 197.06748516 -119.02555875 194.09944125 -125.125 188 C-130.89763822 179.07687109 -132.64278338 169.65277881 -132.5 159.1875 C-132.49057373 158.12595703 -132.48114746 157.06441406 -132.47143555 155.97070312 C-132.33068567 148.67189662 -131.91199866 141.83043114 -129.125 135 C-128.83109375 134.24976563 -128.5371875 133.49953125 -128.234375 132.7265625 C-124.93664779 126.10649818 -118.75742699 123.59673576 -112.125 121 C-110.92488281 120.76796875 -109.72476563 120.5359375 -108.48828125 120.296875 C-104.64948149 118.81664094 -103.74711236 117.43225742 -102.07299805 113.74511719 C-101.78078369 113.04547852 -101.48856934 112.34583984 -101.1875 111.625 C-100.51377403 110.16130372 -99.83400554 108.70037471 -99.1484375 107.2421875 C-98.81166992 106.51999023 -98.47490234 105.79779297 -98.12792969 105.05371094 C-94.3630483 97.34431896 -89.09573164 90.70448227 -83.375 84.375 C-82.91504639 83.86549805 -82.45509277 83.35599609 -81.98120117 82.83105469 C-79.52232777 80.20336044 -77.32390784 78.57063493 -74.125 77 C-73.63 75.515 -73.63 75.515 -73.125 74 C-60.08706998 63.27022027 -45.28815222 57.18378864 -29.125 53 C-28.19042969 52.7525 -27.25585938 52.505 -26.29296875 52.25 C-21.64990643 51.11098642 -18.04646949 51 -13.125 51 C-12.795 46.38 -12.465 41.76 -12.125 37 C-13.775 36.34 -15.425 35.68 -17.125 35 C-21.58803762 31.06827639 -24.51117172 27.50253066 -25.9375 21.6875 C-26.28732773 14.80755458 -24.62369963 9.32740745 -20.125 4 C-13.82553183 -1.41382865 -7.87985188 -2.5215526 0 0 Z " fill="#9F2626" transform="translate(255.125,31)"/>
<path d="M0 0 C16.20180737 12.93402394 27.80647928 31.63541618 30.76953125 52.2109375 C31.92302783 66.8873951 32.61958059 83.98467134 23.33203125 96.2734375 C22.16279241 97.60223132 20.97673214 98.91653474 19.76953125 100.2109375 C18.88905803 101.28982722 18.01345624 102.37272545 17.14453125 103.4609375 C2.70921022 120.17551975 -17.12563417 132.3570857 -39.23046875 135.2109375 C-42.20046875 135.2109375 -45.17046875 135.2109375 -48.23046875 135.2109375 C-48.23046875 127.9509375 -48.23046875 120.6909375 -48.23046875 113.2109375 C-45.49609375 112.49479167 -42.76171875 111.77864583 -40.02734375 111.0625 C-35.31705223 109.72760144 -35.31705223 109.72760144 -32.10546875 106.3359375 C-31.81671875 105.6346875 -31.52796875 104.9334375 -31.23046875 104.2109375 C-30.83859375 103.6128125 -30.44671875 103.0146875 -30.04296875 102.3984375 C-28.84533158 99.17402973 -29.59293704 96.52610239 -30.23046875 93.2109375 C-35.11858907 93.62991924 -36.93454289 95.7459898 -40.23046875 99.2109375 C-44.44899409 101.76310148 -48.41822334 101.89720554 -53.23046875 101.2109375 C-56.58617011 99.43811414 -58.7761154 97.72036399 -61.29296875 94.8984375 C-61.93234375 94.3415625 -62.57171875 93.7846875 -63.23046875 93.2109375 C-65.93752387 93.35118949 -65.93752387 93.35118949 -68.23046875 94.2109375 C-69.27478325 97.43881868 -69.31575928 98.97011718 -68.16796875 102.2109375 C-64.95699525 107.18276744 -60.91739007 110.5048611 -55.23046875 112.2109375 C-53.25046875 112.5409375 -51.27046875 112.8709375 -49.23046875 113.2109375 C-49.23046875 120.4709375 -49.23046875 127.7309375 -49.23046875 135.2109375 C-70.33960777 134.47670658 -87.07754952 127.96321056 -103.23046875 114.2109375 C-103.84792969 113.72496094 -104.46539062 113.23898438 -105.1015625 112.73828125 C-106.52047637 111.61429174 -107.88327325 110.41995911 -109.23046875 109.2109375 C-109.23046875 108.5509375 -109.23046875 107.8909375 -109.23046875 107.2109375 C-109.80539063 106.98921875 -110.3803125 106.7675 -110.97265625 106.5390625 C-113.91986188 104.80541213 -115.3647113 102.7313452 -117.35546875 99.9609375 C-118.03867188 99.02765625 -118.721875 98.094375 -119.42578125 97.1328125 C-121.23456407 94.20430698 -122.2841044 91.50857824 -123.23046875 88.2109375 C-123.89046875 88.2109375 -124.55046875 88.2109375 -125.23046875 88.2109375 C-131.35717027 69.42056274 -131.5025232 48.82785349 -122.54296875 30.8359375 C-119.04638394 24.17723786 -114.96081987 18.06311102 -110.23046875 12.2109375 C-109.34488281 11.06238281 -109.34488281 11.06238281 -108.44140625 9.890625 C-80.90527676 -23.73860548 -33.42011016 -23.76731839 0 0 Z " fill="#FBFBFB" transform="translate(297.23046875,123.7890625)"/>
<path d="M0 0 C3.3 0 6.6 0 10 0 C10 0.33 10 0.66 10 1 C7.03 1 4.06 1 1 1 C1 2.98 1 4.96 1 7 C1.6084375 7.02578125 2.216875 7.0515625 2.84375 7.078125 C22.88822325 8.37512033 43.75410369 15.49703488 58 30 C58.87398437 30.83917969 59.74796875 31.67835937 60.6484375 32.54296875 C76.76756519 48.17713701 87.54267749 67.80262479 88.3359375 90.515625 C88.64598564 113.47772308 84.84844332 132.85665716 70 151 C69.20294927 152.18389294 68.41123333 153.37139568 67.625 154.5625 C64.67033644 158.71602066 60.95126847 161.81988987 57 165 C56.34773437 165.52722656 55.69546875 166.05445313 55.0234375 166.59765625 C39.10829494 178.9937135 21.08534686 185.56667123 1 185 C1 187.31 1 189.62 1 192 C-1.31 192 -3.62 192 -6 192 C-6 191.67 -6 191.34 -6 191 C-4.02 191 -2.04 191 0 191 C0 189.02 0 187.04 0 185 C-1.20269531 185.08701172 -1.20269531 185.08701172 -2.4296875 185.17578125 C-22.10884575 185.95670023 -39.82345872 178.23259682 -55 166 C-56.7041054 164.37163262 -58.38025441 162.71230248 -60 161 C-60.93328125 160.26007813 -61.8665625 159.52015625 -62.828125 158.7578125 C-66.06484351 156.07950549 -68.5397532 152.99601147 -70.9375 149.5625 C-71.57872803 148.65105225 -71.57872803 148.65105225 -72.23291016 147.72119141 C-86.57107567 126.83488731 -91.56870144 102.66892518 -87 77.6875 C-83.64180905 64.66465624 -77.65042621 52.29499393 -69 42 C-67.95199219 40.72769531 -67.95199219 40.72769531 -66.8828125 39.4296875 C-52.6038513 22.81324511 -32.23175219 9.88032227 -10.13671875 7.6015625 C-6.75792106 7.35027503 -3.38484865 7.145208 0 7 C0 4.69 0 2.38 0 0 Z M-61.09765625 44.4609375 C-74.81719028 62.77243056 -82.62197345 82.78988185 -80 106 C-79.05786843 111.11426657 -77.61145841 116.0577146 -76 121 C-75.34 121 -74.68 121 -74 121 C-73.74992188 121.87140625 -73.49984375 122.7428125 -73.2421875 123.640625 C-71.93751431 127.16898645 -70.34197023 129.721535 -68.125 132.75 C-67.44695312 133.69359375 -66.76890625 134.6371875 -66.0703125 135.609375 C-64.04012879 137.9536626 -62.6968527 138.6684995 -60 140 C-59.30738594 141.32004091 -58.64255653 142.65488167 -58 144 C-45.06111384 156.96719882 -26.13883213 166.21662194 -8 168 C-5.36 168 -2.72 168 0 168 C0 160.74 0 153.48 0 146 C-2.97 145.34 -5.94 144.68 -9 144 C-13.29835671 141.64806897 -16.38457955 139.16529924 -19 135 C-19.75 131.1875 -19.75 131.1875 -20 128 C-17 126 -17 126 -15.0390625 126.1875 C-12.68585424 127.12517685 -11.23883688 128.29216709 -9.375 130 C-5.31399917 133.68859464 -2.84491523 134.34668181 2.61328125 134.28515625 C6.55276478 133.81448146 8.78220927 132.31680932 12 130 C12.8353125 128.88625 12.8353125 128.88625 13.6875 127.75 C14.120625 127.1725 14.55375 126.595 15 126 C16.32 126 17.64 126 19 126 C20.35616438 132.28767123 20.35616438 132.28767123 18.625 135.75 C18.08875 136.4925 17.5525 137.235 17 138 C16.505 139.485 16.505 139.485 16 141 C11.56152969 143.83003382 6.02089007 144.68500498 1 146 C1 153.26 1 160.52 1 168 C22.83998889 168 41.95760595 159.68175324 58 145 C59.36709731 143.36091474 60.70794452 141.69886674 62 140 C63.66666667 138.33333333 65.33333333 136.66666667 67 135 C79.2022212 121.88340047 80.76238581 108.37284644 80.34375 90.9296875 C79.55689712 73.25359967 72.57417866 58.24467868 61 45 C60.50886719 44.37738281 60.01773438 43.75476563 59.51171875 43.11328125 C47.39228764 27.92131831 28.17279152 18.57591564 9.13134766 16.21533203 C-17.47680463 13.52708572 -43.78221057 23.74097502 -61.09765625 44.4609375 Z " fill="#982A2A" transform="translate(248,91)"/>
<path d="M0 0 C0.66 0.33 1.32 0.66 2 1 C2 1.66 2 2.32 2 3 C2.598125 3.226875 3.19625 3.45375 3.8125 3.6875 C7.57962453 5.94777472 8.69268718 9.17510768 10.1875 13.1875 C11.87407048 21.10140766 11.7183366 28.68199711 8 36 C3.27603616 43.03595673 -2.68662818 47.28222726 -11 49 C-19.01433166 49.38779024 -24.50822627 48.00407558 -31 43 C-37.50020641 36.92681445 -40.05512682 30.33158691 -40.4375 21.5 C-40.22617783 14.64163496 -38.08277488 9.47681337 -33.6875 4.25 C-22.9485244 -4.74077027 -12.90875087 -7.06434938 0 0 Z " fill="#9E2626" transform="translate(305,165)"/>
<path d="M0 0 C5.57649878 5.60249644 8.0559148 11.90824921 8.36328125 19.74609375 C7.93368872 28.47159527 5.18422105 34.65990484 -1.19921875 40.62109375 C-7.27504654 45.41839539 -12.75227478 47.34439849 -20.484375 47.08984375 C-28.21133766 45.98447358 -34.12065034 41.8821538 -38.91796875 35.8515625 C-43.41202254 28.92322957 -44.41458534 21.43012038 -42.890625 13.3984375 C-40.82078926 5.90331803 -36.23353144 0.95285765 -30.19921875 -3.75390625 C-20.4188931 -9.06930062 -8.55467766 -6.62741695 0 0 Z " fill="#9F2727" transform="translate(223.32421875,167.31640625)"/>
<path d="M0 0 C0 2.31 0 4.62 0 7 C-1.14855469 7.17015625 -2.29710937 7.3403125 -3.48046875 7.515625 C-22.10250449 10.37203714 -39.44834105 15.44287346 -54 28 C-54.95648438 28.81339844 -55.91296875 29.62679687 -56.8984375 30.46484375 C-63.31918585 36.05540043 -68.49600963 41.71447553 -73 49 C-73.50917969 49.76570313 -74.01835937 50.53140625 -74.54296875 51.3203125 C-83.51173292 65.29221761 -87.4165605 79.93135424 -87.25 96.4375 C-87.23549805 97.95778809 -87.23549805 97.95778809 -87.22070312 99.50878906 C-86.89954741 119.46540514 -80.25882643 136.28473755 -68 152 C-67.30261719 152.89976562 -66.60523438 153.79953125 -65.88671875 154.7265625 C-63.81222051 157.22626846 -61.55713162 159.00418995 -59 161 C-57.89978516 162.1446875 -57.89978516 162.1446875 -56.77734375 163.3125 C-48.14977269 171.66097945 -37.41519856 177.48652808 -26 181 C-24.52273437 181.45826172 -24.52273437 181.45826172 -23.015625 181.92578125 C-15.41003351 184.04850586 -7.8696056 184.66239858 0 185 C0 186.98 0 188.96 0 191 C-9.83913489 191.33712772 -18.53563686 191.07684107 -28 188 C-29.16660156 187.63648438 -30.33320313 187.27296875 -31.53515625 186.8984375 C-38.86104329 184.46953377 -44.84653415 181.61782216 -51 177 C-51.88300781 176.3915625 -52.76601562 175.783125 -53.67578125 175.15625 C-63.36796884 168.39987027 -71.06173043 160.53170043 -78 151 C-78.48984375 150.37351563 -78.9796875 149.74703125 -79.484375 149.1015625 C-92.72725473 131.08839814 -97.77806021 106.99984337 -95.7265625 85.078125 C-91.45098908 58.45663012 -77.11706941 34.64484729 -55.921875 18.08984375 C-39.66649433 6.46333485 -20.19381098 -0.79191416 0 0 Z " fill="#F2F2F2" transform="translate(248,91)"/>
<path d="M0 0 C24.47274764 -1.50859403 45.9654171 9.61021905 64.0625 25.3125 C68.64267706 29.49164773 72.41672476 33.9529996 76 39 C76.65162109 39.88751953 76.65162109 39.88751953 77.31640625 40.79296875 C79.19201135 43.43972856 80 44.6782334 80 48 C80.66 48 81.32 48 82 48 C95.66826524 72.58931091 98.82866517 96.53340022 91.3125 123.625 C86.99963393 136.67752296 79.6397181 147.45014015 71 158 C70.31679688 158.8765625 69.63359375 159.753125 68.9296875 160.65625 C63.42515546 167.34191645 56.16463869 172.24917527 49 177 C48.23042969 177.52722656 47.46085937 178.05445313 46.66796875 178.59765625 C33.60813823 187.0659709 15.60419573 191.5953408 0 191 C0 188.69 0 186.38 0 184 C1.19882813 183.94392578 1.19882813 183.94392578 2.421875 183.88671875 C17.57102046 182.9799037 32.82915815 179.43861204 45 170 C45.93714844 169.55785156 46.87429688 169.11570312 47.83984375 168.66015625 C51.30746124 166.83847834 53.77068076 164.73591168 56.625 162.0625 C58.00558594 160.78052734 58.00558594 160.78052734 59.4140625 159.47265625 C67.94607172 151.31440575 74.52173311 142.8325442 79.375 132.0625 C79.69629883 131.36044434 80.01759766 130.65838867 80.34863281 129.93505859 C84.99157172 119.14157389 86.52288877 108.305692 86.375 96.625 C86.36339844 95.44252686 86.35179687 94.26005371 86.33984375 93.04174805 C85.89314982 69.13869583 76.70637242 50.01522973 60 33 C57.85067827 31.06810551 55.67806439 29.19507756 53.43359375 27.375 C52.96050781 26.92125 52.48742187 26.4675 52 26 C52 25.34 52 24.68 52 24 C51.319375 23.7525 50.63875 23.505 49.9375 23.25 C47.10284918 22.04376561 44.51180519 20.5951875 41.8449707 19.06103516 C28.46243676 11.36479425 15.13744787 8.56033985 0 6 C0 4.02 0 2.04 0 0 Z " fill="#F5F5F5" transform="translate(249,92)"/>
<path d="M0 0 C0.66 0 1.32 0 2 0 C2.27972656 0.54527344 2.55945313 1.09054688 2.84765625 1.65234375 C7.815957 10.99786125 13.77256123 18.3559551 22 25 C22.64195312 25.55171875 23.28390625 26.1034375 23.9453125 26.671875 C39.46595906 39.53689762 56.21579987 44.93556173 76 47 C76 39.74 76 32.48 76 25 C73.03 24.67 70.06 24.34 67 24 C62.23982854 21.52837251 59.03189949 18.41791069 56 14 C55.1875 10.125 55.1875 10.125 55 7 C56.75 5.4375 56.75 5.4375 59 4 C62.36639077 4.39160056 64.16647538 5.74725497 66.625 8 C70.73241326 11.7307509 73.17499748 12.29442219 78.68359375 12.21484375 C83.48595532 11.76943079 86.24382441 9.85567238 89.375 6.3125 C89.91125 5.549375 90.4475 4.78625 91 4 C92.65 4.33 94.3 4.66 96 5 C97.33913043 11.20869565 97.33913043 11.20869565 95.875 14.625 C91.79515064 19.79280919 88.32589187 22.85371526 82 25 C80.35 25 78.7 25 77 25 C77 32.26 77 39.52 77 47 C98.4245795 44.59724342 121.80069203 37.63916956 136.20703125 20.3515625 C137.09455078 19.18753906 137.09455078 19.18753906 138 18 C139.66666667 16.33333333 141.33333333 14.66666667 143 13 C143.88598361 11.96765922 144.76100115 10.92580942 145.625 9.875 C147.35713017 7.77821085 149.0643586 5.89088669 151 4 C147.67193661 19.66963182 136.09526074 33.0717943 123.1640625 42.05078125 C107.96540458 51.41390508 94.56213649 56.17787707 76.625 56.1875 C75.43132812 56.19974609 74.23765625 56.21199219 73.0078125 56.22460938 C50.57107871 56.26183847 32.5382106 45.36012223 17 30 C9.85811924 22.75192027 0 10.72612293 0 0 Z " fill="#B8B9B9" transform="translate(172,212)"/>
<path d="M0 0 C2.05859375 -0.3984375 2.05859375 -0.3984375 4.4375 -0.375 C5.21996094 -0.38273437 6.00242188 -0.39046875 6.80859375 -0.3984375 C11.83591849 0.51562154 14.18387015 5.93890502 16.9375 9.875 C19.84697604 14.01893139 22.78823103 18.08030052 26 22 C26.02505615 21.36908447 26.0501123 20.73816895 26.07592773 20.08813477 C26.19154137 17.24603175 26.31442316 14.40428917 26.4375 11.5625 C26.47681641 10.56927734 26.51613281 9.57605469 26.55664062 8.55273438 C26.59853516 7.60849609 26.64042969 6.66425781 26.68359375 5.69140625 C26.72025146 4.81685791 26.75690918 3.94230957 26.79467773 3.04125977 C27 1 27 1 28 0 C29.99609375 -0.16796875 29.99609375 -0.16796875 32.4375 -0.1875 C33.64212891 -0.20876953 33.64212891 -0.20876953 34.87109375 -0.23046875 C37 0 37 0 39 2 C39.25839398 4.79465054 39.39794009 7.49678235 39.44921875 10.296875 C39.47095657 11.12326477 39.4926944 11.94965454 39.51509094 12.80108643 C39.55905272 14.55282753 39.59824231 16.30469385 39.63305664 18.05664062 C39.68700845 20.72568264 39.75729398 23.39391234 39.83007812 26.0625 C39.87076893 27.76560193 39.91051271 29.46872681 39.94921875 31.171875 C39.96997971 31.96583679 39.99074066 32.75979858 40.01213074 33.57781982 C40.08899131 37.82560757 40.03914927 41.84663385 39 46 C35.54234088 47.72882956 32.6450528 48.15238783 29 47 C25.45529825 43.74338355 22.79112124 39.90475042 20 36 C19.14702547 34.86302744 18.2902153 33.72892282 17.4296875 32.59765625 C15.26408718 29.74811609 13.12569529 26.87948794 11 24 C11.02356567 24.98395752 11.02356567 24.98395752 11.04760742 25.98779297 C11.10983652 28.95010816 11.14895168 31.9122861 11.1875 34.875 C11.22520508 36.42380859 11.22520508 36.42380859 11.26367188 38.00390625 C11.27817383 39.48310547 11.27817383 39.48310547 11.29296875 40.9921875 C11.31653442 42.35899658 11.31653442 42.35899658 11.34057617 43.75341797 C11.22818604 44.49479004 11.1157959 45.23616211 11 46 C7.28500878 48.47666082 5.39092112 48.54886514 1 48 C-2.72904515 43.6982053 -2.42240936 39.25841648 -2.36328125 33.8671875 C-2.36377975 32.99353546 -2.36427826 32.11988342 -2.36479187 31.21975708 C-2.36245772 29.37906613 -2.35276813 27.5383716 -2.33618164 25.69775391 C-2.31252215 22.87764054 -2.31563393 20.05846912 -2.32226562 17.23828125 C-2.31669067 15.44791102 -2.30958195 13.65754478 -2.30078125 11.8671875 C-2.30169266 11.02340546 -2.30260406 10.17962341 -2.30354309 9.31027222 C-2.25573107 5.375441 -2.23032051 3.34548076 0 0 Z " fill="#A52222" transform="translate(238,415)"/>
<path d="M0 0 C5.47844061 4.5275943 10.43067586 9.39592926 15.28125 14.58398438 C18.35153219 17.7534264 20.36375867 19.75009108 25 20 C25.99 18.68 26.98 17.36 28 16 C28.99 16.33 29.98 16.66 31 17 C30.82984375 17.53882813 30.6596875 18.07765625 30.484375 18.6328125 C28.20769334 26.35899815 26.80433663 34.18943185 25.44628906 42.11767578 C24.56498025 47.19369274 23.529405 52.07871459 22 57 C16.57261583 56.36190596 11.53998291 55.13671127 6.3125 53.5625 C5.56677734 53.34529297 4.82105469 53.12808594 4.05273438 52.90429688 C0.53396966 51.859026 -2.78853573 50.82180691 -6 49 C-4.64828843 32.56603301 -2.44489849 16.30466148 0 0 Z " fill="#FAFAFA" transform="translate(202,294)"/>
<path d="M0 0 C2.44603996 2.44603996 2.3934115 3.50264139 2.78125 6.8828125 C2.90008545 7.87812988 3.0189209 8.87344727 3.14135742 9.89892578 C3.25970947 10.96353027 3.37806152 12.02813477 3.5 13.125 C3.75636745 15.31251676 4.01287825 17.50001672 4.26953125 19.6875 C4.45443115 21.30011719 4.45443115 21.30011719 4.64306641 22.9453125 C4.95471691 25.61246096 5.28667575 28.27516977 5.63671875 30.9375 C5.73082031 31.65534668 5.82492187 32.37319336 5.921875 33.11279297 C6.17027386 34.99450565 6.41910519 36.87616122 6.66796875 38.7578125 C7 42 7 42 7 48 C-1.91 50.97 -10.82 53.94 -20 57 C-22.25795294 53.61307059 -22.90431293 50.5391155 -23.69140625 46.62890625 C-23.841577 45.9101683 -23.99174774 45.19143036 -24.14646912 44.45091248 C-24.62464583 42.15600355 -25.0937971 39.85936064 -25.5625 37.5625 C-26.03675699 35.26965631 -26.51282879 32.9771956 -26.98924255 30.68479919 C-27.28476625 29.25941821 -27.57866919 27.83369997 -27.8707428 26.40760803 C-28.51829823 23.25402405 -29.1811446 20.11403409 -30 17 C-29.01 16.34 -28.02 15.68 -27 15 C-26.608125 15.66 -26.21625 16.32 -25.8125 17 C-24.18027201 19.21728517 -24.18027201 19.21728517 -21.67700195 19.38476562 C-18.06735498 18.86595088 -16.87318229 17.44710005 -14.35546875 14.84375 C-13.09379883 13.55791016 -13.09379883 13.55791016 -11.80664062 12.24609375 C-10.94232422 11.33988281 -10.07800781 10.43367188 -9.1875 9.5 C-8.30384766 8.59378906 -7.42019531 7.68757813 -6.50976562 6.75390625 C-4.32821472 4.51339451 -2.1591577 2.2620652 0 0 Z " fill="#FAFAFA" transform="translate(293,294)"/>
<path d="M0 0 C3.36956986 3.07837247 5.31953867 6.54344355 5.5625 11.125 C4.95020544 15.34302916 3.97452196 17.02547804 1 20 C1.825 20.598125 2.65 21.19625 3.5 21.8125 C6.15439638 24.47448037 6.47194544 26.66597793 6.625 30.375 C6.39446169 34.99822767 5.56958167 38.1042394 2.53515625 41.62890625 C-2.39878799 46.03555874 -7.74629519 46.59837806 -14.14453125 46.421875 C-19.75865268 45.59242888 -24.99238969 43.23260112 -28.8125 38.984375 C-30 37 -30 37 -29.5 34.5 C-27.1297063 30.54951051 -24.34801329 28.44933776 -20 27 C-19.93941406 26.28972656 -19.87882813 25.57945312 -19.81640625 24.84765625 C-19.73261719 23.92855469 -19.64882812 23.00945312 -19.5625 22.0625 C-19.48128906 21.14597656 -19.40007812 20.22945313 -19.31640625 19.28515625 C-19 17 -19 17 -18 16 C-16.31816052 15.76712992 -14.6287584 15.58735834 -12.9375 15.4375 C-11.55884766 15.31181641 -11.55884766 15.31181641 -10.15234375 15.18359375 C-9.44207031 15.12300781 -8.73179687 15.06242187 -8 15 C-7.67 13.68 -7.34 12.36 -7 11 C-12.50366792 10.67625483 -16.43672206 10.46713966 -21 14 C-25.28324091 11.48592381 -27.64531705 9.87685861 -29 5 C-21.3220959 -3.87757662 -10.57436362 -5.16381424 0 0 Z " fill="#A22323" transform="translate(222,417)"/>
<path d="M0 0 C0.33 0 0.66 0 1 0 C1 2.97 1 5.94 1 9 C3.31 9 5.62 9 8 9 C8 6.03 8 3.06 8 0 C8.33 0 8.66 0 9 0 C10.22683899 25.76361882 -0.00523857 48.46898179 -16 68 C-16.68320312 68.8765625 -17.36640625 69.753125 -18.0703125 70.65625 C-23.57484454 77.34191645 -30.83536131 82.24917527 -38 87 C-38.76957031 87.52722656 -39.53914063 88.05445313 -40.33203125 88.59765625 C-53.39186177 97.0659709 -71.39580427 101.5953408 -87 101 C-87 98.69 -87 96.38 -87 94 C-85.80117187 93.94392578 -85.80117187 93.94392578 -84.578125 93.88671875 C-69.42897954 92.9799037 -54.17084185 89.43861204 -42 80 C-41.06285156 79.55785156 -40.12570312 79.11570312 -39.16015625 78.66015625 C-35.69253876 76.83847834 -33.22931924 74.73591168 -30.375 72.0625 C-28.99441406 70.78052734 -28.99441406 70.78052734 -27.5859375 69.47265625 C-7.15360455 49.93539529 -0.79842048 27.61433586 0 0 Z " fill="#B7B7B7" transform="translate(336,182)"/>
<path d="M0 0 C2.38267356 2.38267356 2.25475523 2.8851343 2.2746582 6.12670898 C2.28895622 7.40329628 2.28895622 7.40329628 2.30354309 8.70567322 C2.30263168 9.62651199 2.30172028 10.54735077 2.30078125 11.49609375 C2.30506638 12.44057877 2.3093515 13.38506378 2.31376648 14.35816956 C2.31951586 16.35799355 2.32000558 18.35783845 2.31567383 20.35766602 C2.31251623 23.42174904 2.33595726 26.48486475 2.36132812 29.54882812 C2.36360125 31.48958211 2.36430456 33.4303387 2.36328125 35.37109375 C2.372491 36.28990829 2.38170074 37.20872284 2.39118958 38.15538025 C2.38184639 39.43669579 2.38184639 39.43669579 2.37231445 40.74389648 C2.37294388 41.49509262 2.3735733 42.24628876 2.3742218 43.02024841 C1.89639474 45.54810456 1.01855115 46.44997063 -1 48 C-3.2265625 48.109375 -3.2265625 48.109375 -5.625 47.75 C-6.42164063 47.64171875 -7.21828125 47.5334375 -8.0390625 47.421875 C-10 47 -10 47 -11 46 C-11.0852301 43.91290199 -11.10818338 41.82321077 -11.10546875 39.734375 C-11.12029297 38.45175781 -11.13511719 37.16914063 -11.15039062 35.84765625 C-11.17317424 33.80203046 -11.18754973 31.75813744 -11.17504883 29.71240234 C-10.79270644 22.00784494 -10.79270644 22.00784494 -13.37817383 15.06616211 C-15.18109833 13.58441365 -15.18109833 13.58441365 -18 12 C-18.36067841 8.60962293 -17.74927064 6.99075244 -15.703125 4.28515625 C-11.09703917 -0.37576393 -6.38491378 -1.2139507 0 0 Z " fill="#A52222" transform="translate(300,415)"/>
<path d="M0 0 C1.99430099 2.99145148 3.83409154 6.04448221 5.6875 9.125 C10.25847079 16.60809625 14.85318949 23.7339291 22 29 C22.72960937 29.75796875 23.45921875 30.5159375 24.2109375 31.296875 C32.83606865 39.65624581 43.5797191 45.48496379 55 49 C55.98484375 49.30550781 56.9696875 49.61101562 57.984375 49.92578125 C65.58996649 52.04850586 73.1303944 52.66239858 81 53 C81 54.98 81 56.96 81 59 C71.16086511 59.33712772 62.46436314 59.07684107 53 56 C51.83339844 55.63648438 50.66679687 55.27296875 49.46484375 54.8984375 C42.13895671 52.46953377 36.15346585 49.61782216 30 45 C29.11699219 44.3915625 28.23398438 43.783125 27.32421875 43.15625 C14.50163309 34.21768407 0.93582597 20.85463047 -5 6 C-4.67 5.01 -4.34 4.02 -4 3 C-3.67 3.66 -3.34 4.32 -3 5 C-2.01 3.35 -1.02 1.7 0 0 Z " fill="#B5B6B5" transform="translate(167,223)"/>
<path d="M0 0 C0.66 0 1.32 0 2 0 C2.27972656 0.54527344 2.55945313 1.09054688 2.84765625 1.65234375 C7.815957 10.99786125 13.77256123 18.3559551 22 25 C22.64195312 25.55171875 23.28390625 26.1034375 23.9453125 26.671875 C39.3872917 39.47169046 56.28868658 45.07694503 76 47 C76 49.97 76 52.94 76 56 C61.67536145 56.39305411 61.67536145 56.39305411 55 54 C53.86691406 53.59652344 52.73382813 53.19304687 51.56640625 52.77734375 C31.42326926 45.30842428 14.02993763 31.25054311 4 12 C0 3.15789474 0 3.15789474 0 0 Z " fill="#BEBFBF" transform="translate(172,212)"/>
<path d="M0 0 C2.41100905 0.89848465 3.81912238 2.04387439 5.7109375 3.77734375 C9.81835076 7.50809465 12.26093498 8.07176594 17.76953125 7.9921875 C22.57189282 7.54677454 25.32976191 5.63301613 28.4609375 2.08984375 C28.9971875 1.32671875 29.5334375 0.56359375 30.0859375 -0.22265625 C32.5609375 0.27234375 32.5609375 0.27234375 35.0859375 0.77734375 C36.42506793 6.9860394 36.42506793 6.9860394 34.9609375 10.40234375 C31.4673356 14.82757282 28.55136099 18.09968988 23.0859375 19.77734375 C20.26869278 20.10433244 17.48255003 20.14741914 14.6484375 20.15234375 C13.91044922 20.17683594 13.17246094 20.20132813 12.41210938 20.2265625 C7.15943234 20.25457678 4.27335988 19.19046466 0.0859375 15.77734375 C-4.11706875 11.5743375 -5.55734492 8.72263683 -5.9140625 2.77734375 C-2.48029101 -0.28852365 -2.48029101 -0.28852365 0 0 Z " fill="#9D2A2A" transform="translate(232.9140625,216.22265625)"/>
<path d="M0 0 C1.65 0 3.3 0 5 0 C5.66 3.3 6.32 6.6 7 10 C5.02 10.33 3.04 10.66 1 11 C1 13.97 1 16.94 1 20 C2.299375 19.979375 3.59875 19.95875 4.9375 19.9375 C6.29165633 19.91600546 7.64756083 19.92851801 9 20 C10.8290425 21.8290425 10.64266237 24.71684529 11 27.1875 C11.6259547 31.4664872 12.27539739 35.73648998 13 40 C12.01 40 11.02 40 10 40 C10 42.97 10 45.94 10 49 C11.65 49 13.3 49 15 49 C15.33 50.65 15.66 52.3 16 54 C11.125 58 11.125 58 10 58 C9.67 55.36 9.34 52.72 9 50 C6.03 49.67 3.06 49.34 0 49 C0 46.03 0 43.06 0 40 C2.64 39.67 5.28 39.34 8 39 C8.33 36.03 8.66 33.06 9 30 C6.03 30 3.06 30 0 30 C0 26.7 0 23.4 0 20 C-2.97 20 -5.94 20 -9 20 C-9 17.03 -9 14.06 -9 11 C-10.65 11 -12.3 11 -14 11 C-13.21302675 7.58978257 -12.12880057 4.31114834 -11 1 C-10.34 1 -9.68 1 -9 1 C-9 3.97 -9 6.94 -9 10 C-6.03 10 -3.06 10 0 10 C0 6.7 0 3.4 0 0 Z " fill="#99999B" transform="translate(251,317)"/>
<path d="M0 0 C3 1 3 1 4.5 3.875 C4.995 4.90625 5.49 5.9375 6 7 C6.52013672 7.47703369 7.04027344 7.95406738 7.57617188 8.44555664 C9.85516975 10.93361896 9.30931548 13.17167018 9.19921875 16.40576172 C8.8470473 20.991759 8.20197772 25.51861721 7.5 30.0625 C7.35691406 31.02349609 7.21382812 31.98449219 7.06640625 32.97460938 C6.71674414 35.3173455 6.3611856 37.65901777 6 40 C1.64334803 39.15130156 -0.73372099 36.98225475 -4 34 C-7.00680751 29.48978873 -6.44712942 25.12268917 -6.5 19.8125 C-6.54125 18.79607422 -6.5825 17.77964844 -6.625 16.73242188 C-6.70097923 9.37668295 -5.13440252 5.29219053 0 0 Z " fill="#F4F6F6" transform="translate(182,294)"/>
<path d="M0 0 C0.33 0 0.66 0 1 0 C1 2.97 1 5.94 1 9 C3.31 9 5.62 9 8 9 C8 6.03 8 3.06 8 0 C8.33 0 8.66 0 9 0 C9.98276752 20.63811786 3.38054309 40.92918537 -8 58 C-8.99 58 -9.98 58 -11 58 C-11 58.66 -11 59.32 -11 60 C-11.99 60 -12.98 60 -14 60 C-14.53381423 54.36432194 -12.80955503 51.02984737 -10.1875 46.25 C-7.05635725 40.27993629 -4.56104183 34.58631349 -3 28 C-2.6596875 26.80375 -2.319375 25.6075 -1.96875 24.375 C-0.7373596 19.4494384 -0.55139905 14.55677281 -0.375 9.5 C-0.31699219 8.12328125 -0.31699219 8.12328125 -0.2578125 6.71875 C-0.16450436 4.47935472 -0.07871815 2.23994746 0 0 Z " fill="#D2D2D2" transform="translate(336,182)"/>
<path d="M0 0 C4.59354072 3.80155094 6.58992541 8.38503479 7.25390625 14.23828125 C7.41134186 20.31529575 6.67434347 26.20942756 3.5 31.5 C3.005 31.995 2.51 32.49 2 33 C1.34 33 0.68 33 0 33 C-0.2475 33.639375 -0.495 34.27875 -0.75 34.9375 C-2 37 -2 37 -4.078125 37.62890625 C-4.71234375 37.75136719 -5.3465625 37.87382812 -6 38 C-6.33896268 35.16724047 -6.67129694 32.33395339 -7 29.5 C-7.09539062 28.70851563 -7.19078125 27.91703125 -7.2890625 27.1015625 C-8.9802919 12.36370631 -8.9802919 12.36370631 -4 6 C-3.24055324 4.88135545 -2.49021075 3.756465 -1.75 2.625 C-1.1725 1.75875 -0.595 0.8925 0 0 Z " fill="#FAFAFA" transform="translate(314,296)"/>
<path d="M0 0 C7.56939279 4.452584 7.56939279 4.452584 10.1875 7.875 C10.125 11.25 10.125 11.25 9.1875 13.875 C6.52651694 14.90505796 4.76951339 15.10454173 2.09765625 14.05078125 C1.34355469 13.68339844 0.58945312 13.31601563 -0.1875 12.9375 C-7.00704557 9.6740211 -13.53648226 10.95106124 -20.8125 11.875 C-22.8125 8.875 -22.8125 8.875 -22.8125 6.5 C-19.01556306 -3.46695947 -8.73173348 -2.57657709 0 0 Z " fill="#992B2B" transform="translate(296.8125,138.125)"/>
<path d="M0 0 C2.24579147 1.49534135 4.11167216 3.27182841 6.015625 5.17578125 C5.44744318 10.74396307 5.44744318 10.74396307 4.015625 12.17578125 C2.66890784 12.22615023 1.31961124 12.21151659 -0.02734375 12.16796875 C-0.85427734 12.15121094 -1.68121094 12.13445312 -2.53320312 12.1171875 C-4.2730151 12.07340245 -6.01264448 12.02150389 -7.75195312 11.9609375 C-13.04531644 11.87087254 -16.29821782 12.45937451 -20.984375 15.17578125 C-21.974375 15.17578125 -22.964375 15.17578125 -23.984375 15.17578125 C-25.984375 12.17578125 -25.984375 12.17578125 -26.171875 9.36328125 C-24.34912541 4.47063763 -20.46045272 2.586581 -15.984375 0.17578125 C-11.04108869 -1.47198085 -4.90831094 -2.03868821 0 0 Z " fill="#992D2D" transform="translate(215.984375,137.82421875)"/>
<path d="M0 0 C1 3 1 3 0.1015625 6.25 C-1.6547312 12.696631 -1.46895317 19.36150794 -1.625 26 C-1.66325652 27.36069998 -1.70231248 28.72137774 -1.7421875 30.08203125 C-1.83597068 33.3878882 -1.92167389 36.69374674 -2 40 C-10.13100518 35.70437462 -10.13100518 35.70437462 -12 32 C-13.17413484 23.17096644 -12.2880125 13.30527601 -9 5 C-6.49567702 2.08513227 -3.61085759 1.2036192 0 0 Z " fill="#F9F9F9" transform="translate(145,162)"/>
<path d="M0 0 C3.625 0.1875 3.625 0.1875 6.625 2.1875 C6.625 2.8475 6.625 3.5075 6.625 4.1875 C7.945 4.8475 9.265 5.5075 10.625 6.1875 C11.11367825 13.39550421 11.11367825 13.39550421 8.8125 17.125 C5.98296607 19.79284627 4.0918291 20.1356301 0.25 20.5625 C-4.29493735 20.09233407 -5.51868962 18.63187428 -8.375 15.1875 C-8.705 14.8575 -9.035 14.5275 -9.375 14.1875 C-9.66822866 11.25521337 -9.87504247 9.04258117 -9.375 6.1875 C-6.9375 3.25 -6.9375 3.25 -4.375 1.1875 C-3.375 0.1875 -3.375 0.1875 0 0 Z " fill="#EFEFEF" transform="translate(290.375,168.8125)"/>
<path d="M0 0 C3.17496188 2.09258851 4.88460857 3.82691286 7 7 C7.53665542 11.02491565 7.14921994 12.7363781 5.125 16.3125 C3 19 3 19 1 20 C-6.08958838 20.5811138 -6.08958838 20.5811138 -9.9375 18.125 C-12.99885131 14.97088047 -13.52512271 12.54454102 -13.4765625 8.109375 C-12.70246313 4.68303353 -10.69183952 3.10274852 -7.9375 1.0703125 C-5.03328117 -0.53403419 -3.23406419 -0.70305743 0 0 Z " fill="#F7F7F7" transform="translate(209,169)"/>
<path d="M0 0 C4.89469871 0.77758592 6.83063784 2.07999943 10 6 C14.1644818 13.46734667 14.48752605 22.69810882 13 31 C10.44378502 34.1410689 7.80505779 35.68369456 4 37 C3.67 37 3.34 37 3 37 C2.95101563 35.75347656 2.90203125 34.50695312 2.8515625 33.22265625 C2.37481733 22.06703944 1.47659782 11.06731573 0 0 Z " fill="#F7F7F7" transform="translate(351,163)"/>
<path d="M0 0 C0.66 0 1.32 0 2 0 C2.27972656 0.54527344 2.55945313 1.09054688 2.84765625 1.65234375 C7.8079601 10.98281884 13.7590745 18.38898028 22 25 C22.76957031 25.62132812 23.53914063 26.24265625 24.33203125 26.8828125 C28.95985708 30.55671453 28.95985708 30.55671453 34.0625 33.5 C34.701875 33.995 35.34125 34.49 36 35 C36.3607834 38.42744229 36.55938978 40.88122044 35 44 C30.2634106 42.53852446 27.14223268 39.72597098 23.625 36.375 C23.05064209 35.83375488 22.47628418 35.29250977 21.88452148 34.73486328 C11.92580894 25.25695507 4.32741008 15.23678377 0 2 C0 1.34 0 0.68 0 0 Z " fill="#B5B5B5" transform="translate(172,212)"/>
<path d="M0 0 C3.41265019 0.84851738 5.03207739 2.83663543 7.15234375 5.53515625 C7.81234375 6.19515625 8.47234375 6.85515625 9.15234375 7.53515625 C8.8508033 11.35466867 7.84403553 13.8150711 5.15234375 16.53515625 C2.15625 17.1015625 2.15625 17.1015625 -1.28515625 17.09765625 C-2.98478516 17.13052734 -2.98478516 17.13052734 -4.71875 17.1640625 C-7.84765625 16.53515625 -7.84765625 16.53515625 -10.22265625 14.15234375 C-12.09571334 11.13564123 -12.60838179 10.00068373 -11.84765625 6.53515625 C-8.6921677 1.14028872 -6.28901831 -0.40810601 0 0 Z " fill="#F0F1F1" transform="translate(249.84765625,291.46484375)"/>
<path d="M0 0 C2.5 1.5 2.5 1.5 4 4 C4.7152453 9.00671711 4.81148802 10.85436985 1.875 15 C-1.50263831 17.34966143 -2.97304363 17.68543938 -7 17 C-10.1359157 15.22015595 -10.84102736 14.47691793 -12 11 C-12.3468602 7.18453778 -12.53366895 4.86721204 -10.5 1.5625 C-6.97441116 -0.64099302 -4.04985528 -0.79669284 0 0 Z " fill="#F8FAFA" transform="translate(252,41)"/>
<path d="M0 0 C0.99 0.33 1.98 0.66 3 1 C1.38973173 4.22053655 -1.96494005 4.75308966 -5.1875 5.9375 C-5.90784424 6.20328857 -6.62818848 6.46907715 -7.37036133 6.74291992 C-18.37409619 10.68309554 -29.34502487 12.43854771 -41 13 C-41 10.69 -41 8.38 -41 6 C-40.20078125 5.96261719 -39.4015625 5.92523438 -38.578125 5.88671875 C-31.57815788 5.46770663 -25.19555338 4.49146198 -18.4609375 2.5234375 C-16 2 -16 2 -13 3 C-12.34 3.66 -11.68 4.32 -11 5 C-9.5414128 4.35474023 -8.08313863 3.7087728 -6.625 3.0625 C-5.81289063 2.70285156 -5.00078125 2.34320313 -4.1640625 1.97265625 C-2.76316215 1.3430097 -1.37374716 0.68687358 0 0 Z " fill="#B2B2B2" transform="translate(290,270)"/>
<path d="M0 0 C1.65 0 3.3 0 5 0 C5.66 3.3 6.32 6.6 7 10 C5.02 10.33 3.04 10.66 1 11 C1 13.97 1 16.94 1 20 C3.64 20 6.28 20 9 20 C9 20.33 9 20.66 9 21 C6.36 21 3.72 21 1 21 C1 23.97 1 26.94 1 30 C0.67 30 0.34 30 0 30 C0 26.7 0 23.4 0 20 C-2.97 20 -5.94 20 -9 20 C-9 17.03 -9 14.06 -9 11 C-10.65 11 -12.3 11 -14 11 C-13.21302675 7.58978257 -12.12880057 4.31114834 -11 1 C-10.34 1 -9.68 1 -9 1 C-9 3.97 -9 6.94 -9 10 C-6.03 10 -3.06 10 0 10 C0 6.7 0 3.4 0 0 Z " fill="#676767" transform="translate(251,317)"/>
<path d="M0 0 C0.33 0 0.66 0 1 0 C0.35878726 9.06134845 -0.73480542 18.00852005 -2 27 C-6.35665197 26.15130156 -8.73372099 23.98225475 -12 21 C-14 18 -14 18 -13.9375 16.125 C-12.88875347 13.7478412 -11.49072238 12.32840826 -9.60546875 10.5703125 C-6.7827093 7.80936531 -4.25855361 4.77348377 -1.671875 1.79296875 C-1.12015625 1.20128906 -0.5684375 0.60960937 0 0 Z " fill="#C6CACC" transform="translate(190,307)"/>
<path d="M0 0 C1.26617247 1.8992587 2.49330113 3.8256425 3.6640625 5.78515625 C7.56296231 12.30144497 11.54940201 18.18486841 16.62890625 23.87890625 C18 26 18 26 17.71484375 28.27734375 C17.47894531 28.84582031 17.24304688 29.41429687 17 30 C15.02 29.01 13.04 28.02 11 27 C11 26.34 11 25.68 11 25 C10.39929688 24.90589844 9.79859375 24.81179687 9.1796875 24.71484375 C3.11722198 22.72661581 -0.77978909 13.33402093 -3.99609375 8.19921875 C-5 6 -5 6 -4 3 C-3.67 3.66 -3.34 4.32 -3 5 C-2.01 3.35 -1.02 1.7 0 0 Z " fill="#BCBCBC" transform="translate(167,223)"/>
<path d="M0 0 C0.33 0.66 0.66 1.32 1 2 C-3.56928543 8.16853533 -8.44338176 13.70317171 -14 19 C-17.9115468 17.52041491 -19.2274524 15.46042529 -21.25 11.875 C-22.03117187 10.50988281 -22.03117187 10.50988281 -22.828125 9.1171875 C-23.21484375 8.41851562 -23.6015625 7.71984375 -24 7 C-22.85402344 6.74605469 -21.70804687 6.49210937 -20.52734375 6.23046875 C-18.99731647 5.88316194 -17.46737295 5.53548599 -15.9375 5.1875 C-15.18533203 5.02185547 -14.43316406 4.85621094 -13.65820312 4.68554688 C-8.82053394 3.57560546 -4.50480895 2.08788622 0 0 Z " fill="#F2F2F2" transform="translate(288,283)"/>
<path d="M0 0 C3.29240875 2.79854744 5.03562946 6.20673275 7 10 C7 10.99 7 11.98 7 13 C10.16115776 11.63016497 10.9927092 11.0109362 13 8 C13.45139459 5.9507906 13.45139459 5.9507906 13.625 3.8125 C13.74875 2.554375 13.8725 1.29625 14 0 C14.33 0 14.66 0 15 0 C15.28861986 6.92687669 15.17025763 13.38290394 11.5 19.5 C11.005 19.995 10.51 20.49 10 21 C9.34 21 8.68 21 8 21 C7.7525 21.639375 7.505 22.27875 7.25 22.9375 C6 25 6 25 3.921875 25.62890625 C3.28765625 25.75136719 2.6534375 25.87382812 2 26 C1.66103732 23.16724047 1.32870306 20.33395339 1 17.5 C0.90460938 16.70851563 0.80921875 15.91703125 0.7109375 15.1015625 C0.12892118 10.02970596 -0.09367085 5.10506141 0 0 Z " fill="#9C9C9C" transform="translate(306,308)"/>
<path d="M0 0 C1.19625 0.268125 2.3925 0.53625 3.625 0.8125 C10.07502794 2.24698621 16.53817282 3.6198039 23 5 C21.02 8.96 19.04 12.92 17 17 C9.2905929 15.07264822 4.07225111 8.62300181 0 2 C0 1.34 0 0.68 0 0 Z " fill="#F2F2F2" transform="translate(209,285)"/>
<path d="M0 0 C0.33 0 0.66 0 1 0 C1.33 6.27 1.66 12.54 2 19 C3.98 17.68 5.96 16.36 8 15 C8.66 15 9.32 15 10 15 C10.63098767 22.25635822 8.50355361 28.66192852 4.125 34.5 C1.54044565 36.32439131 -0.96071463 37.17110399 -4 38 C-3.79141357 37.29327148 -3.58282715 36.58654297 -3.36791992 35.85839844 C-1.18509626 27.92297204 -0.47497167 20.45714011 -0.3125 12.25 C-0.27833984 11.0640625 -0.24417969 9.878125 -0.20898438 8.65625 C-0.12754384 5.77092815 -0.05806387 2.8858705 0 0 Z " fill="#959595" transform="translate(353,180)"/>
<path d="M0 0 C2.97 0 5.94 0 9 0 C9 2.97 9 5.94 9 9 C11.97 9 14.94 9 18 9 C18 11.97 18 14.94 18 18 C15.03 18 12.06 18 9 18 C8.67 15.36 8.34 12.72 8 10 C5.36 9.67 2.72 9.34 0 9 C0 6.03 0 3.06 0 0 Z " fill="#A42323" transform="translate(242,357)"/>
<path d="M0 0 C2.19726562 1.85546875 2.19726562 1.85546875 4.39453125 3.7109375 C5.8655046 4.89201099 7.43037794 5.95358529 9 7 C9.33 5.35 9.66 3.7 10 2 C10.33 2 10.66 2 11 2 C11.99 8.6 12.98 15.2 14 22 C7.10191083 20.85031847 7.10191083 20.85031847 4.1015625 16.8046875 C0.75016123 11.31409393 -0.39889748 6.38235964 0 0 Z " fill="#8B8B8B" transform="translate(133,194)"/>
<path d="M0 0 C1.32 0.66 2.64 1.32 4 2 C4.48867825 9.20800421 4.48867825 9.20800421 2.1875 12.9375 C-1.59235706 16.50136523 -5.01856026 16.09398943 -10 16 C-10.66 14.68 -11.32 13.36 -12 12 C-11.46890625 11.55269531 -10.9378125 11.10539063 -10.390625 10.64453125 C-6.52111681 7.33285362 -3.01412695 4.14442456 0 0 Z " fill="#F6F6F6" transform="translate(297,173)"/>
<path d="M0 0 C0 4.95 0 9.9 0 15 C-6 15 -6 15 -8.375 12.8125 C-10.17057181 9.70477956 -10.87157023 8.48628091 -10 5 C-5.11111111 0 -5.11111111 0 0 0 Z " fill="#F9FAFA" transform="translate(248,293)"/>
<path d="M0 0 C2.97 0 5.94 0 9 0 C9.09765625 6.93359375 9.09765625 6.93359375 9 9 C8 10 8 10 5.31616211 10.11352539 C4.14835205 10.10828857 2.98054199 10.10305176 1.77734375 10.09765625 C0.51728516 10.09443359 -0.74277344 10.09121094 -2.04101562 10.08789062 C-3.38151109 10.07953403 -4.72200588 10.07106907 -6.0625 10.0625 C-7.40689942 10.0574866 -8.7513006 10.05292342 -10.09570312 10.04882812 C-13.39717941 10.03699488 -16.69856803 10.02050971 -20 10 C-19.67 7.69 -19.34 5.38 -19 3 C-18.67 3 -18.34 3 -18 3 C-18 4.98 -18 6.96 -18 9 C-12.06 9 -6.12 9 0 9 C0 6.03 0 3.06 0 0 Z " fill="#852F2F" transform="translate(251,347)"/>
<path d="M0 0 C2.97 0 5.94 0 9 0 C9 2.97 9 5.94 9 9 C6.03 9 3.06 9 0 9 C0 11.64 0 14.28 0 17 C-1.32 16.34 -2.64 15.68 -4 15 C-4 13.02 -4 11.04 -4 9 C-3.01 9 -2.02 9 -1 9 C-0.67 6.03 -0.34 3.06 0 0 Z " fill="#F9FAFA" transform="translate(233,357)"/>
<path d="M0 0 C4.7734375 0.8671875 4.7734375 0.8671875 6.8125 2.0625 C8.75507414 5.23196307 8.75690366 8.46319563 8 12 C5.625 15 5.625 15 3 17 C2.34 17 1.68 17 1 17 C0.09586327 13.16275828 -0.10576898 9.62497726 -0.0625 5.6875 C-0.05347656 4.61886719 -0.04445312 3.55023438 -0.03515625 2.44921875 C-0.02355469 1.64097656 -0.01195312 0.83273438 0 0 Z " fill="#C0C1C4" transform="translate(248,41)"/>
<path d="M0 0 C4.29 0 8.58 0 13 0 C13.66 1.32 14.32 2.64 15 4 C13.9375 6 13.9375 6 12 8 C8.58325465 8.58020204 6.21923644 8.76934352 3.2109375 6.87109375 C1.74508059 5.65186206 0.36473592 4.33144968 -1 3 C-0.67 2.01 -0.34 1.02 0 0 Z " fill="#E0E0DE" transform="translate(202,444)"/>
<path d="M0 0 C2.03833424 1.2739589 4.03852126 2.61061923 6 4 C6 4.66 6 5.32 6 6 C7.32 6.33 8.64 6.66 10 7 C9.67 9.31 9.34 11.62 9 14 C4.65779887 13.49897679 2.13196993 10.85962472 -1 8 C-3 5 -3 5 -2.75 2.875 C-2 1 -2 1 0 0 Z " fill="#959799" transform="translate(179,320)"/>
<path d="M0 0 C2.97 0 5.94 0 9 0 C9 3.3 9 6.6 9 10 C6.03 10 3.06 10 0 10 C0 6.7 0 3.4 0 0 Z " fill="#A42222" transform="translate(242,337)"/>
<path d="M0 0 C1.31534494 3.65857532 0.65468309 6.08026481 -0.4375 9.75 C-0.72496094 10.73484375 -1.01242188 11.7196875 -1.30859375 12.734375 C-1.53675781 13.48203125 -1.76492187 14.2296875 -2 15 C-8.75 14.125 -8.75 14.125 -11 13 C-9.46356148 9.31930113 -7.21849055 7.01224796 -4.375 4.25 C-3.55773437 3.45078125 -2.74046875 2.6515625 -1.8984375 1.828125 C-0.95871094 0.92320312 -0.95871094 0.92320312 0 0 Z " fill="#EBEBEB" transform="translate(226,336)"/>
<path d="M0 0 C1.3805087 3.76668598 0.59568159 6.44789173 -0.4375 10.25 C-0.72496094 11.32765625 -1.01242188 12.4053125 -1.30859375 13.515625 C-1.65083984 14.74539063 -1.65083984 14.74539063 -2 16 C-5.99996286 14.66667905 -6.83782337 12.5042173 -9 9 C-7.48328036 4.44984107 -3.83108947 2.49942736 0 0 Z " fill="#EAEAEA" transform="translate(194,284)"/>
<path d="M0 0 C3.98381075 2.16264012 6.88983545 4.71211176 10 8 C8.61122646 11.35620271 7.08322035 13.07298728 4 15 C3.34 15 2.68 15 2 15 C0.73694665 9.92523206 -0.27036084 5.27203646 0 0 Z " fill="#EDEFEE" transform="translate(302,284)"/>
<path d="M0 0 C2.97 0 5.94 0 9 0 C9 2.97 9 5.94 9 9 C6.03 9 3.06 9 0 9 C0 6.03 0 3.06 0 0 Z " fill="#F2F3F4" transform="translate(242,347)"/>
<path d="M0 0 C2.97 0 5.94 0 9 0 C9 2.97 9 5.94 9 9 C6.03 9 3.06 9 0 9 C0 6.03 0 3.06 0 0 Z " fill="#F3F4F4" transform="translate(242,328)"/>
<path d="M0 0 C6.15234375 -0.09765625 6.15234375 -0.09765625 8 0 C9 1 9 1 9.09765625 2.84765625 C9.04882812 5.92382812 9.04882812 5.92382812 9 9 C6.03 9 3.06 9 0 9 C0 6.03 0 3.06 0 0 Z " fill="#EFF0F1" transform="translate(242,366)"/>
<path d="M0 0 C2.65391468 2.47698704 4.81169744 4.53411752 6 8 C6.0777346 10.33203812 6.08967728 12.66839059 6 15 C3.13302508 13.71480435 1.02392288 12.42870746 -1 10 C-1 9.34 -1 8.68 -1 8 C-2.65 8.66 -4.3 9.32 -6 10 C-4.34832443 6.4213696 -2.21713508 3.25179812 0 0 Z " fill="#ECECED" transform="translate(314,296)"/>
<path d="M0 0 C3.27490088 3.27490088 4.88324986 5.91248249 7 10 C7 10.99 7 11.98 7 13 C7.66 13.33 8.32 13.66 9 14 C4.375 17 4.375 17 1 17 C0.67 11.39 0.34 5.78 0 0 Z " fill="#BDBDBD" transform="translate(306,308)"/>
<path d="M0 0 C0.33 0.66 0.66 1.32 1 2 C1.99 2 2.98 2 4 2 C4 1.34 4 0.68 4 0 C4.66 0.33 5.32 0.66 6 1 C5.44570313 1.68707031 4.89140625 2.37414062 4.3203125 3.08203125 C3.59585937 3.98308594 2.87140625 4.88414062 2.125 5.8125 C1.40570313 6.70582031 0.68640625 7.59914062 -0.0546875 8.51953125 C-2.07940706 11.03570953 -2.07940706 11.03570953 -4 14 C-5.32 14 -6.64 14 -8 14 C-7.46719784 9.77510398 -6.12321801 7.45919284 -3.4375 4.1875 C-2.47650391 3.00220703 -2.47650391 3.00220703 -1.49609375 1.79296875 C-1.00238281 1.20128906 -0.50867188 0.60960937 0 0 Z " fill="#C6C6C5" transform="translate(321,240)"/>
<path d="M0 0 C2.64 0 5.28 0 8 0 C8 2.97 8 5.94 8 9 C5.36 9 2.72 9 0 9 C0 6.03 0 3.06 0 0 Z " fill="#F9F9F9" transform="translate(252,338)"/>
<path d="M0 0 C2.64 0 5.28 0 8 0 C8 2.64 8 5.28 8 8 C5.36 8 2.72 8 0 8 C0 5.36 0 2.72 0 0 Z " fill="#F8F9FA" transform="translate(252,357)"/>
<path d="M0 0 C0.66 0 1.32 0 2 0 C2 0.66 2 1.32 2 2 C3.98 2.66 5.96 3.32 8 4 C8.66 3.01 9.32 2.02 10 1 C11.32 2.65 12.64 4.3 14 6 C13.01 7.485 13.01 7.485 12 9 C11.36707617 11.11280345 11.36707617 11.11280345 11 13 C9.34810857 11.40207236 7.7036661 9.79644124 6.0625 8.1875 C5.14597656 7.29417969 4.22945312 6.40085938 3.28515625 5.48046875 C1 3 1 3 0 0 Z " fill="#ACACAC" transform="translate(176,248)"/>
<path d="M0 0 C0.33 0.66 0.66 1.32 1 2 C-0.84909288 6.68436862 -3.76677074 8.26684457 -8.0625 10.3984375 C-10 11 -10 11 -13 10 C-13 9.01 -13 8.02 -13 7 C-12.0925 6.566875 -11.185 6.13375 -10.25 5.6875 C-7.55635646 4.28887739 -5.39818368 2.81931176 -3 1 C-2.01 0.67 -1.02 0.34 0 0 Z " fill="#CFCFCE" transform="translate(307,255)"/>
<path d="M0 0 C1.98 0 3.96 0 6 0 C6 2.97 6 5.94 6 9 C3.69 9 1.38 9 -1 9 C-0.67 6.03 -0.34 3.06 0 0 Z " fill="#F6F6F6" transform="translate(235,338)"/>
<path d="M0 0 C4.31687378 0.35001679 6.19275066 1.77686187 9 5 C7.515 7.475 7.515 7.475 6 10 C3.53199953 8.84826645 1.95216435 7.95216435 0 6 C-0.6875 3.4375 -0.6875 3.4375 -1 1 C-0.67 0.67 -0.34 0.34 0 0 Z " fill="#B0B0AF" transform="translate(188,255)"/>
<path d="M0 0 C3.69230769 0.69230769 3.69230769 0.69230769 5 2 C5.04080783 3.99958364 5.04254356 6.00045254 5 8 C3.02 8.66 1.04 9.32 -1 10 C-1.02689216 8.52093108 -1.04634621 7.04172517 -1.0625 5.5625 C-1.07410156 4.73878906 -1.08570313 3.91507813 -1.09765625 3.06640625 C-1 1 -1 1 0 0 Z " fill="#F9FBFB" transform="translate(250,42)"/>
<path d="M0 0 C0.33 0 0.66 0 1 0 C1 2.97 1 5.94 1 9 C-1.97 9 -4.94 9 -8 9 C-8 11.64 -8 14.28 -8 17 C-9.32 16.34 -10.64 15.68 -12 15 C-12 13.02 -12 11.04 -12 9 C-11.01 9 -10.02 9 -9 9 C-8.67 8.01 -8.34 7.02 -8 6 C-8 6.66 -8 7.32 -8 8 C-5.36 8 -2.72 8 0 8 C0 5.36 0 2.72 0 0 Z " fill="#979899" transform="translate(241,357)"/>
<path d="M0 0 C1.32 0 2.64 0 4 0 C4.66 2.97 5.32 5.94 6 9 C4.02 9 2.04 9 0 9 C0 6.03 0 3.06 0 0 Z " fill="#EFEFF0" transform="translate(252,318)"/>
<path d="M0 0 C2.97 0 5.94 0 9 0 C9 0.66 9 1.32 9 2 C7.01310269 3.35278115 5.01254782 4.68568305 3 6 C2.67 6.66 2.34 7.32 2 8 C1.34 8 0.68 8 0 8 C0 5.36 0 2.72 0 0 Z " fill="#E8E8E9" transform="translate(251,376)"/>
<path d="M0 0 C1.65 0 3.3 0 5 0 C5.33 1.65 5.66 3.3 6 5 C1.125 9 1.125 9 0 9 C0 6.03 0 3.06 0 0 Z " fill="#EEEEEF" transform="translate(261,366)"/>
<path d="M0 0 C1.33333333 1.33333333 2.66666667 2.66666667 4 4 C4.53625 4.433125 5.0725 4.86625 5.625 5.3125 C7.52892005 7.64912915 7.30315793 9.21894637 7.1875 12.1875 C7.16042969 13.08855469 7.13335937 13.98960937 7.10546875 14.91796875 C7.07066406 15.60503906 7.03585938 16.29210937 7 17 C6.67 17 6.34 17 6 17 C5.62875 15.4221875 5.62875 15.4221875 5.25 13.8125 C4.45506335 10.94957597 3.82433683 9.78300432 1.875 7.375 C-0.28677991 4.63674544 -0.38820805 3.39682043 0 0 Z " fill="#4F5050" transform="translate(185,293)"/>
<path d="M0 0 C-2.25740623 2.33524782 -4.2805761 4.18705073 -7 6 C-7.72965366 8.56282742 -7.72965366 8.56282742 -8 11 C-8.33 11 -8.66 11 -9 11 C-9.28782392 7.94906643 -9.4359485 5.04087532 -9 2 C-5.98076111 -0.8515034 -3.88659295 -1.58342676 0 0 Z " fill="#8A8A8A" transform="translate(317,323)"/>
<path d="M0 0 C0.99 0.33 1.98 0.66 3 1 C1.48523802 4.02952396 -0.85368016 4.37093771 -3.9375 5.625 C-5.01902344 6.07101562 -6.10054688 6.51703125 -7.21484375 6.9765625 C-10 8 -10 8 -12 8 C-11 5 -11 5 -9.00390625 3.8671875 C-8.19824219 3.53976562 -7.39257812 3.21234375 -6.5625 2.875 C-5.75941406 2.54242188 -4.95632813 2.20984375 -4.12890625 1.8671875 C-3.07509766 1.43792969 -3.07509766 1.43792969 -2 1 C-1.34 0.67 -0.68 0.34 0 0 Z " fill="#A5A5A5" transform="translate(290,270)"/>
<path d="M0 0 C0.66 0 1.32 0 2 0 C2 0.66 2 1.32 2 2 C3.98 2 5.96 2 8 2 C8 3.65 8 5.3 8 7 C5.6875 6.8125 5.6875 6.8125 3 6 C0 1.86206897 0 1.86206897 0 0 Z " fill="#C1C3C6" transform="translate(240,51)"/>
<path d="M0 0 C2.64 0 5.28 0 8 0 C8 1.98 8 3.96 8 6 C4.63408134 4.55746343 2.48952921 2.66735273 0 0 Z " fill="#D0D0D1" transform="translate(234,375)"/>
<path d="M0 0 C0.99 0.99 1.98 1.98 3 3 C2.2884375 4.051875 2.2884375 4.051875 1.5625 5.125 C-0.08739857 8.16081337 -0.60368464 10.59168786 -1 14 C-1.33 14 -1.66 14 -2 14 C-2.05389087 12.04196493 -2.09274217 10.08351091 -2.125 8.125 C-2.14820313 7.03445313 -2.17140625 5.94390625 -2.1953125 4.8203125 C-2 2 -2 2 0 0 Z " fill="#404142" transform="translate(307,300)"/>
<path d="M0 0 C4.29 0 8.58 0 13 0 C13.33 0.66 13.66 1.32 14 2 C10.7 1.67 7.4 1.34 4 1 C3.67 1.66 3.34 2.32 3 3 C1.68 3 0.36 3 -1 3 C-0.67 2.01 -0.34 1.02 0 0 Z " fill="#CECECC" transform="translate(202,444)"/>
<path d="M0 0 C0.66 0 1.32 0 2 0 C2 2.97 2 5.94 2 9 C0.68 9 -0.64 9 -2 9 C-1.34 6.03 -0.68 3.06 0 0 Z " fill="#EFEFEF" transform="translate(240,318)"/>
<path d="M0 0 C0.33 0 0.66 0 1 0 C0.67 3.96 0.34 7.92 0 12 C-0.66 10.68 -1.32 9.36 -2 8 C-2.66 7.01 -3.32 6.02 -4 5 C-2.69254251 3.31295807 -1.35827971 1.64639965 0 0 Z " fill="#B6B8BA" transform="translate(190,307)"/>
<path d="M0 0 C0.33 0.66 0.66 1.32 1 2 C0.0625 4.125 0.0625 4.125 -1 6 C-1.598125 5.835 -2.19625 5.67 -2.8125 5.5 C-5.11344336 4.8885876 -5.11344336 4.8885876 -8 5 C-5.31158141 2.74754119 -3.35358125 1.11786042 0 0 Z " fill="#C8C8C7" transform="translate(307,255)"/>
<path d="M0 0 C0 1.98 0 3.96 0 6 C-2.16874252 5.49396008 -3.99967627 5.00016187 -6 4 C-6 3.34 -6 2.68 -6 2 C-1.125 0 -1.125 0 0 0 Z " fill="#9FA0A1" transform="translate(188,328)"/>
<path d="M0 0 C1.32 1.32 2.64 2.64 4 4 C3.01 4.495 3.01 4.495 2 5 C2 5.66 2 6.32 2 7 C1.01 6.67 0.02 6.34 -1 6 C-1.8125 4.0625 -1.8125 4.0625 -2 2 C-1.34 1.34 -0.68 0.68 0 0 Z " fill="#EAEAEA" transform="translate(265,309)"/>
<path d="M0 0 C1.32 0 2.64 0 4 0 C4.625 2.375 4.625 2.375 5 5 C4.34 5.66 3.68 6.32 3 7 C0 2.25 0 2.25 0 0 Z " fill="#ABABAB" transform="translate(176,222)"/>
<path d="M0 0 C0.66 1.32 1.32 2.64 2 4 C0.1875 6 0.1875 6 -2 8 C-2.99 8 -3.98 8 -5 8 C-4.34 6.68 -3.68 5.36 -3 4 C-2.34 4 -1.68 4 -1 4 C-0.67 2.68 -0.34 1.36 0 0 Z " fill="#D8D8D8" transform="translate(318,149)"/>
<path d="M0 0 C1.32 1.65 2.64 3.3 4 5 C0.25 8 0.25 8 -2 8 C-1.34 5.36 -0.68 2.72 0 0 Z " fill="#858585" transform="translate(351,210)"/>
<path d="M0 0 C0.99 0 1.98 0 3 0 C3 2.31 3 4.62 3 7 C2.01 6.67 1.02 6.34 0 6 C0 4.02 0 2.04 0 0 Z " fill="#DBDBDB" transform="translate(229,366)"/>
<path d="M0 0 C0.99 0.33 1.98 0.66 3 1 C3.33 2.65 3.66 4.3 4 6 C1.69 5.67 -0.62 5.34 -3 5 C-2.01 3.35 -1.02 1.7 0 0 Z " fill="#BDC1C0" transform="translate(182,294)"/>
<path d="M0 0 C4 1 4 1 7 3 C6.67 4.32 6.34 5.64 6 7 C4.02 4.69 2.04 2.38 0 0 Z " fill="#979796" transform="translate(181,254)"/>
<path d="M0 0 C0.66 0.33 1.32 0.66 2 1 C1.34 2.65 0.68 4.3 0 6 C-0.99 5.67 -1.98 5.34 -3 5 C-3 4.01 -3 3.02 -3 2 C-2.01 1.34 -1.02 0.68 0 0 Z " fill="#9D9D9D" transform="translate(318,320)"/>
<path d="M0 0 C1.32 1.65 2.64 3.3 4 5 C2.02 5.99 2.02 5.99 0 7 C-1.125 2.25 -1.125 2.25 0 0 Z " fill="#B7B7B7" transform="translate(181,225)"/>
<path d="M0 0 C0.66 0 1.32 0 2 0 C2 2.31 2 4.62 2 7 C1.34 6.34 0.68 5.68 0 5 C-0.99 5.495 -0.99 5.495 -2 6 C-1.125 1.125 -1.125 1.125 0 0 Z " fill="#848484" transform="translate(361,195)"/>
<path d="M0 0 C0.33 0.66 0.66 1.32 1 2 C-0.4375 4.625 -0.4375 4.625 -2 7 C-2.99 6.67 -3.98 6.34 -5 6 C-3.35 4.02 -1.7 2.04 0 0 Z " fill="#F6F8F9" transform="translate(185,315)"/>
<path d="M0 0 C0.33 0 0.66 0 1 0 C1.33 1.98 1.66 3.96 2 6 C-0.97 5.505 -0.97 5.505 -4 5 C-3.34 4.67 -2.68 4.34 -2 4 C-0.86649466 1.98330173 -0.86649466 1.98330173 0 0 Z " fill="#828282" transform="translate(145,210)"/>
<path d="M0 0 C0.33 0.66 0.66 1.32 1 2 C-0.32 3.65 -1.64 5.3 -3 7 C-4.32 6.34 -5.64 5.68 -7 5 C-6.21625 4.54625 -5.4325 4.0925 -4.625 3.625 C-1.96301969 2.11571258 -1.96301969 2.11571258 0 0 Z " fill="#D0D0D0" transform="translate(310,159)"/>
<path d="M0 0 C-0.66 1.32 -1.32 2.64 -2 4 C-4.31 4 -6.62 4 -9 4 C-8.1028125 3.566875 -8.1028125 3.566875 -7.1875 3.125 C-1.11111111 0 -1.11111111 0 0 0 Z " fill="#C6C6C6" transform="translate(216,448)"/>
<path d="M0 0 C-1 3 -1 3 -2.875 4.0625 C-3.57625 4.371875 -4.2775 4.68125 -5 5 C-5.99 5.66 -6.98 6.32 -8 7 C-6.13932792 2.84926997 -4.83061881 0 0 0 Z " fill="#D7D8D9" transform="translate(188,313)"/>
<path d="M0 0 C0.99 0 1.98 0 3 0 C2.67 2.97 2.34 5.94 2 9 C1.67 9 1.34 9 1 9 C0.67 6.03 0.34 3.06 0 0 Z " fill="#E8E8E8" transform="translate(351,163)"/>
</svg>
