<?xml version="1.0" standalone="no"?>
<!DOCTYPE svg PUBLIC "-//W3C//DTD SVG 20010904//EN"
 "http://www.w3.org/TR/2001/REC-SVG-20010904/DTD/svg10.dtd">
<svg version="1.0" xmlns="http://www.w3.org/2000/svg"
 width="1569.000000pt" height="1553.000000pt" viewBox="0 0 1569.000000 1553.000000"
 preserveAspectRatio="xMidYMid meet">

<g transform="translate(0.000000,1553.000000) scale(0.100000,-0.100000)"
fill="#A42222" stroke="none">
<path d="M7616 14584 c-88 -21 -193 -81 -261 -149 -109 -109 -167 -239 -187
-418 -11 -102 -10 -107 16 -190 31 -102 97 -205 188 -294 49 -48 81 -69 143
-95 44 -19 80 -38 80 -43 0 -6 -6 -103 -14 -216 l-14 -207 -121 -7 c-155 -9
-255 -26 -430 -74 -464 -128 -783 -266 -1096 -474 -177 -118 -226 -161 -244
-215 -14 -41 -23 -51 -74 -79 -102 -56 -231 -184 -407 -403 -152 -189 -239
-334 -359 -599 -39 -86 -83 -177 -98 -202 -37 -63 -102 -104 -197 -125 -42 -9
-119 -34 -171 -56 -238 -98 -358 -206 -426 -383 -69 -183 -91 -304 -105 -582
-20 -432 25 -706 159 -968 56 -108 92 -150 197 -228 137 -102 332 -185 513
-218 70 -13 72 -14 72 -43 0 -59 205 -396 368 -605 178 -228 332 -383 660
-661 l132 -112 -61 -37 c-189 -111 -493 -435 -593 -631 -96 -188 -130 -349
-124 -589 4 -149 8 -178 36 -279 53 -185 79 -242 157 -339 120 -148 267 -264
468 -368 134 -69 246 -110 534 -195 258 -75 397 -107 511 -117 60 -5 72 -9 67
-22 -56 -179 -104 -471 -91 -554 10 -59 31 -83 153 -173 61 -46 181 -141 265
-211 240 -201 486 -383 518 -383 6 0 89 64 183 143 95 78 235 192 312 252 179
140 334 290 365 352 32 63 31 104 -10 385 -19 125 -32 230 -29 232 2 3 81 21
174 41 564 120 847 224 1111 406 163 113 268 232 344 390 72 152 84 213 84
459 1 192 -2 225 -22 305 -80 315 -238 534 -595 824 -70 57 -127 107 -126 110
0 3 65 58 145 121 198 157 520 482 699 705 143 178 279 415 320 558 16 57 17
58 49 52 18 -4 84 -2 147 4 102 9 123 15 195 51 184 91 314 223 432 440 147
273 194 756 111 1165 -55 276 -154 455 -319 579 -79 59 -156 94 -315 144 -193
61 -265 117 -298 233 -23 76 -50 136 -132 283 -67 121 -71 126 -102 126 -31 0
-33 2 -33 33 0 21 -17 62 -47 115 -80 136 -107 170 -143 174 -28 3 -34 9 -55
61 -36 90 -96 158 -285 323 -208 182 -311 261 -462 355 -139 87 -507 272 -653
328 -252 97 -504 157 -716 170 -71 4 -131 10 -134 13 -6 6 -34 332 -35 401 0
35 1 37 34 37 29 0 47 15 164 134 123 126 132 138 152 202 17 52 24 103 27
206 8 199 1 234 -58 323 -58 87 -173 205 -250 257 -91 62 -260 84 -393 52z
m305 -362 c70 -51 93 -104 93 -222 1 -92 0 -98 -34 -154 -21 -35 -55 -72 -85
-94 -46 -33 -57 -36 -134 -40 -68 -4 -91 -1 -120 14 -54 27 -90 63 -118 118
-21 42 -25 64 -27 150 -1 90 2 107 26 159 15 31 28 57 30 57 2 0 30 11 63 25
53 23 72 25 160 23 95 -3 103 -5 146 -36z m-173 -1643 l-3 -112 -165 -28
c-796 -133 -1256 -354 -1751 -840 -133 -131 -236 -258 -356 -441 -227 -345
-345 -632 -410 -998 -22 -123 -26 -184 -30 -408 -6 -294 4 -445 43 -646 87
-449 282 -836 632 -1254 52 -62 96 -111 98 -109 3 2 58 -47 123 -110 241 -230
428 -360 692 -479 311 -139 596 -210 957 -235 l172 -12 0 -93 c0 -74 -3 -93
-16 -98 -43 -16 -411 0 -569 25 -144 22 -418 103 -570 166 -201 84 -395 204
-663 409 -45 35 -86 64 -90 64 -17 0 -382 371 -453 460 -277 346 -478 775
-573 1221 -80 372 -93 809 -32 1104 124 612 422 1175 864 1636 243 254 476
426 791 584 302 151 614 248 916 284 134 17 150 18 278 19 l118 2 -3 -111z
m532 53 c502 -86 952 -308 1441 -714 161 -133 295 -282 456 -506 77 -107 95
-144 101 -204 4 -46 6 -48 36 -48 30 0 35 -5 88 -107 173 -331 295 -707 334
-1033 21 -175 22 -180 39 -180 12 0 15 -18 15 -98 0 -248 -33 -492 -106 -772
-54 -213 -87 -305 -168 -475 -107 -223 -184 -351 -334 -549 -313 -415 -417
-517 -772 -759 -286 -194 -396 -254 -621 -337 -279 -103 -652 -170 -941 -170
l-68 0 0 113 0 113 149 12 c194 16 349 42 541 91 241 61 444 148 615 265 44
30 120 76 170 103 132 70 229 147 415 332 251 250 369 409 509 687 96 191 130
275 181 452 46 156 82 333 106 522 33 266 7 684 -60 963 -126 524 -445 1032
-881 1404 -95 81 -111 99 -115 130 -5 34 -9 38 -80 68 -41 17 -142 68 -223
113 -342 190 -595 278 -1061 368 -132 26 -247 48 -253 50 -9 2 -13 31 -13 100
l0 97 193 -6 c118 -4 236 -13 307 -25z m-300 -463 c528 -56 1113 -311 1445
-631 115 -110 305 -334 419 -493 216 -301 363 -679 407 -1045 17 -143 14 -522
-6 -665 -28 -209 -80 -382 -160 -533 -26 -49 -29 -60 -13 -45 20 18 20 18 13
-17 -29 -138 -132 -368 -231 -516 -165 -249 -420 -499 -672 -657 -315 -198
-673 -335 -1017 -389 -160 -25 -742 -38 -862 -19 -103 16 -391 120 -568 205
-152 74 -375 204 -475 279 -229 171 -518 479 -682 726 -121 182 -188 351 -208
521 -5 41 -15 93 -23 115 -8 22 -26 90 -40 150 -136 575 -61 1114 230 1665
110 210 310 485 472 654 263 271 632 492 1021 609 180 55 331 82 550 101 63 5
287 -3 400 -15z m-3431 -1754 c10 -38 8 -59 -8 -128 -11 -45 -25 -109 -31
-142 -23 -128 -41 -739 -21 -747 7 -2 101 -571 101 -609 0 -16 -168 25 -205
50 -73 48 -163 206 -205 356 -11 40 -25 212 -37 446 -9 194 16 396 74 578 31
100 60 136 143 180 64 34 161 71 171 65 4 -2 12 -24 18 -49z m6511 16 c0 -5
25 -21 56 -35 63 -29 153 -116 185 -179 34 -66 68 -174 84 -266 27 -153 14
-463 -21 -502 -9 -10 -16 -49 -19 -115 -5 -126 -33 -235 -90 -350 -64 -129
-98 -164 -209 -218 -97 -47 -143 -58 -133 -31 17 42 68 274 81 365 20 132 36
416 36 625 0 154 -12 306 -45 560 -21 166 -23 155 30 155 25 0 45 -4 45 -9z
m-2040 -3781 c12 -28 10 -33 -41 -97 -95 -122 -201 -244 -308 -355 l-106 -109
-45 23 c-70 35 -120 93 -198 228 -39 68 -70 125 -69 127 2 1 91 23 198 47 254
59 442 118 528 165 20 12 26 8 41 -29z m-2940 -56 c7 -31 9 -77 5 -103 -6 -45
-73 -309 -81 -323 -3 -4 -55 41 -116 100 l-110 108 22 43 c31 62 92 125 177
181 41 28 78 50 83 50 5 0 14 -25 20 -56z m3463 -4 c40 -27 103 -80 140 -118
l69 -69 -22 -44 c-48 -93 -134 -169 -192 -169 -35 0 -38 2 -49 43 -25 94 -49
255 -49 335 0 98 -5 97 103 22z m-2707 -30 c393 -85 405 -88 411 -93 2 -3 -38
-88 -89 -189 -78 -153 -96 -183 -113 -180 -43 6 -183 84 -248 137 -110 91
-267 301 -267 357 0 17 5 28 14 28 8 0 139 -27 292 -60z m1044 -166 c29 -14
79 -58 132 -117 l87 -94 -14 -65 c-16 -77 -35 -117 -81 -174 -40 -50 -55 -53
-246 -55 -158 -1 -200 12 -257 76 -78 89 -95 197 -46 281 39 66 92 122 139
146 82 42 206 43 286 2z m-2114 -79 c16 -10 24 -29 29 -64 5 -39 19 -67 57
-118 49 -66 88 -141 88 -168 0 -8 6 -18 14 -22 34 -20 23 -189 -40 -608 -19
-126 -34 -233 -34 -238 0 -12 -39 -2 -115 29 -67 26 -190 131 -233 199 -35 54
-52 193 -52 423 0 279 29 385 147 527 51 62 57 67 86 61 17 -4 41 -13 53 -21z
m681 -87 c65 -59 194 -183 287 -277 178 -180 223 -212 316 -226 l45 -7 44 61
c25 34 49 61 54 61 5 0 27 -5 49 -12 33 -10 39 -15 35 -32 -3 -12 -21 -82 -41
-156 -42 -160 -82 -359 -130 -640 -33 -190 -87 -414 -105 -433 -32 -32 -655
134 -822 219 l-52 26 7 101 c15 216 84 782 152 1250 13 93 24 171 24 174 0 12
26 -9 137 -109z m2752 67 c36 -56 31 -31 86 -499 25 -213 55 -454 66 -535 11
-80 23 -207 26 -282 l6 -136 -424 -142 c-478 -159 -430 -154 -475 -54 -32 71
-42 113 -143 601 -49 236 -96 450 -105 476 -22 66 -20 88 12 119 37 35 67 35
86 0 23 -44 72 -92 101 -99 35 -9 99 2 145 26 21 11 153 138 306 295 148 151
272 275 277 275 4 0 20 -20 36 -45z m701 -96 c65 -79 93 -134 120 -244 20 -79
22 -107 17 -230 -10 -264 -96 -475 -193 -475 -26 0 -33 -5 -39 -27 -6 -27 -41
-82 -60 -96 -20 -14 -109 -37 -116 -30 -15 16 -71 567 -64 628 13 122 48 229
95 294 11 16 20 37 20 48 0 10 29 62 65 116 76 113 74 113 155 16z m-2332
-746 l3 -143 -66 0 c-36 0 -65 4 -65 9 0 11 48 238 56 264 4 13 14 17 37 15
l32 -3 3 -142z m464 22 c40 -180 45 -165 -67 -165 l-95 0 0 138 c0 76 3 142 7
146 4 4 34 6 68 4 l60 -3 27 -120z m-182 -335 l0 -140 -145 0 -145 0 0 140 0
140 145 0 145 0 0 -140z m330 -306 c14 -112 59 -413 66 -436 5 -15 -2 -18 -40
-18 l-46 0 0 -140 0 -139 77 -3 78 -3 16 -78 17 -78 -60 -50 c-117 -98 -137
-101 -139 -22 0 26 -6 89 -12 138 l-12 90 -137 3 -138 3 0 133 c0 158 -12 146
151 146 68 0 109 4 117 12 8 8 12 57 12 155 l0 143 -130 0 -130 0 0 140 0 140
130 0 c97 0 130 3 130 13 1 6 9 -4 20 -24 11 -20 24 -76 30 -125z m-650 -4 l0
-140 -111 0 c-100 0 -110 2 -105 18 2 9 10 72 17 140 l12 122 93 0 94 0 0
-140z m318 -282 l-3 -143 -140 0 -140 0 -3 143 -3 142 146 0 146 0 -3 -142z
m-280 -313 l2 -140 119 3 c118 3 119 3 140 -24 19 -24 21 -40 21 -145 l0 -119
-145 0 -145 0 0 -90 c0 -49 -3 -90 -7 -90 -22 0 -121 68 -175 120 l-63 59 123
1 122 0 0 140 0 140 -140 0 -140 0 0 -124 0 -123 -62 32 -63 32 0 94 0 94 48
3 c26 2 47 4 47 5 0 1 7 58 15 127 8 69 15 131 15 138 0 10 32 12 143 10 l142
-3 3 -140z m562 -485 c0 -27 -10 -37 -94 -92 -64 -43 -99 -73 -110 -95 -13
-28 -21 -33 -51 -33 l-35 0 0 125 0 125 145 0 145 0 0 -30z"/>
<path d="M8888 11259 c-127 -14 -241 -88 -294 -191 -32 -63 -31 -119 2 -176
l26 -45 62 6 c33 4 108 11 166 17 167 18 282 1 436 -66 111 -48 184 -57 247
-30 39 16 57 63 57 149 0 55 -1 58 -58 114 -118 119 -298 204 -462 218 -36 3
-76 7 -90 9 -14 1 -55 -1 -92 -5z"/>
<path d="M6355 11244 c-140 -29 -314 -138 -382 -239 -46 -70 -47 -124 -4 -199
26 -48 31 -51 72 -54 33 -3 61 5 119 33 129 60 190 68 468 62 258 -5 256 -6
282 43 6 10 14 53 18 95 l8 75 -60 59 c-81 77 -129 107 -201 126 -74 19 -225
18 -320 -1z"/>
<path d="M6265 10496 c-147 -29 -211 -59 -315 -150 -243 -212 -345 -438 -327
-726 16 -249 114 -446 300 -600 131 -109 331 -190 466 -190 385 2 720 264 822
645 17 62 22 109 22 210 0 161 -21 246 -95 395 -43 86 -67 119 -133 186 -70
72 -94 88 -195 137 -63 31 -153 65 -199 77 -107 27 -255 34 -346 16z m272
-251 c52 -22 197 -172 213 -220 30 -90 -12 -238 -95 -333 -56 -64 -80 -73
-208 -75 -119 -2 -140 4 -214 59 -94 71 -149 244 -112 355 25 73 120 168 211
209 53 24 153 26 205 5z"/>
<path d="M8934 10486 c-175 -40 -403 -178 -496 -301 -57 -74 -116 -194 -140
-282 -30 -109 -30 -294 0 -415 78 -320 290 -542 591 -619 40 -10 121 -21 180
-25 95 -5 115 -3 194 20 184 54 335 154 448 293 71 89 109 163 141 278 19 69
22 104 22 255 -1 145 -5 188 -22 251 -45 164 -129 288 -221 325 -36 14 -41 20
-41 49 0 31 -3 34 -107 83 -60 28 -142 60 -183 72 -97 28 -279 36 -366 16z
m205 -236 c84 -12 141 -48 141 -90 0 -27 7 -33 64 -62 l65 -32 6 -83 c9 -107
1 -156 -35 -220 -56 -98 -155 -145 -307 -145 l-93 0 -49 41 c-27 23 -73 69
-103 103 l-52 61 -1 116 0 116 40 47 c65 79 155 146 200 151 22 2 45 4 50 5 6
1 39 -3 74 -8z"/>
<path d="M7195 8765 c-16 -9 -45 -30 -62 -48 -38 -36 -41 -65 -18 -166 22 -92
60 -155 145 -241 89 -91 186 -143 295 -161 107 -17 426 -2 488 22 61 24 207
108 207 119 0 4 29 45 65 90 89 112 101 153 79 276 l-17 92 -76 15 -76 16 -25
-32 c-132 -173 -292 -245 -483 -218 -103 14 -160 42 -265 131 -126 107 -198
136 -257 105z"/>
<path d="M6400 2574 c-125 -32 -348 -175 -358 -228 -6 -31 30 -108 72 -154 42
-46 146 -122 166 -122 6 0 28 11 48 25 66 45 151 65 279 65 l115 0 -6 -27
c-19 -77 -27 -103 -34 -103 -4 0 -70 -7 -147 -15 -77 -8 -146 -15 -152 -15
-24 0 -41 -56 -52 -164 -6 -60 -11 -124 -11 -143 l0 -33 200 0 200 0 31 -62
32 -63 -23 -41 c-12 -23 -35 -54 -51 -70 -27 -26 -34 -28 -121 -28 -112 0
-141 13 -241 106 l-68 63 15 43 c15 43 15 43 -7 36 -130 -40 -277 -188 -277
-278 0 -100 195 -245 400 -297 72 -19 102 -21 200 -16 187 10 309 55 402 148
91 91 133 220 126 385 -5 118 -37 188 -113 247 l-53 41 38 45 c109 129 125
270 50 421 -46 92 -109 154 -193 188 -142 59 -342 79 -467 46z"/>
<path d="M9144 2570 c-184 -33 -334 -185 -334 -340 0 -33 5 -39 74 -84 72 -47
75 -51 100 -120 45 -127 46 -138 46 -521 0 -203 4 -375 8 -381 14 -22 56 -36
146 -50 142 -21 156 -20 198 24 71 71 68 44 68 714 0 332 -5 621 -10 642 -10
47 -38 87 -71 103 -34 16 -164 23 -225 13z"/>
<path d="M7444 2555 c-12 -8 -32 -38 -45 -67 l-24 -53 0 -600 0 -600 27 -58
c15 -32 37 -71 48 -88 21 -29 23 -29 114 -29 84 0 99 3 154 31 55 27 62 34 68
67 4 20 4 176 0 347 -4 184 -3 305 3 300 5 -6 103 -137 219 -292 235 -316 302
-396 348 -418 50 -23 177 -19 244 8 53 21 55 24 69 77 17 66 18 510 2 1004
l-10 309 -28 29 c-33 35 -78 48 -164 48 -107 0 -159 -10 -174 -34 -11 -16 -17
-91 -25 -286 -6 -146 -13 -290 -16 -319 l-6 -55 -19 25 c-93 118 -210 279
-295 404 -105 155 -170 226 -229 251 -48 20 -233 19 -261 -1z"/>
</g>
</svg>
